<svg width="32" height="32" viewBox="0 0 32 32" fill="none" xmlns="http://www.w3.org/2000/svg">
<circle cx="16" cy="16" r="16" fill="#FDDF02"/>
<path d="M27.8939 20.9191C27.7445 21.2039 27.4705 21.3334 27.1966 21.3334C27.0721 21.3334 26.9227 21.3075 26.7982 21.2298C24.1835 19.7282 21.6685 19.0809 19.3028 19.3139C17.9581 19.4434 17.0118 19.8317 15.9909 20.2201C14.8703 20.6602 13.6999 21.1003 12.0315 21.2557C9.54133 21.4628 6.97645 20.8673 4.43648 19.521C4.03805 19.3139 3.88864 18.822 4.08786 18.4078C4.28707 17.9935 4.78508 17.8382 5.15861 18.0453C6.82702 18.9515 8.52036 19.4693 10.1639 19.5987L15.7668 15.301L14.6213 14.1877L9.96466 17.4757C9.41682 17.8641 8.66977 17.7088 8.29625 17.1392C7.92272 16.5696 8.07211 15.7929 8.61994 15.4046L14.0734 11.5728C14.5466 11.2622 15.1442 11.288 15.5675 11.7023L20.4981 16.4919C20.8218 16.8026 20.9214 17.2427 20.8467 17.657C23.038 17.7605 25.3041 18.4854 27.6199 19.8058C27.9686 20.013 28.118 20.5308 27.8939 20.9191ZM22.3657 10.6667C20.9712 10.6667 19.8506 11.8317 19.8506 13.2816C19.8506 14.7314 20.9712 15.8964 22.3657 15.8964C23.7602 15.8964 24.8808 14.7314 24.8808 13.2816C24.8808 11.8576 23.7602 10.6667 22.3657 10.6667Z" fill="black"/>
</svg>
