<svg fill="none" height="25" viewBox="0 0 24 25" width="24" xmlns="http://www.w3.org/2000/svg" xmlns:xlink="http://www.w3.org/1999/xlink"><clipPath id="a"><path d="m-.000244.85498h24v24h-24z"/></clipPath><g clip-path="url(#a)"><circle cx="11.9998" cy="12.855" fill="#0351a0" r="12"/><path d="m16.3214 13.6152h-1.0994v-1.4035h-.9357c1.0058-.421 1.7076-1.4035 1.7076-2.57309 0-1.54386-1.2397-2.78363-2.7836-2.78363-1.3099 0-2.4094.91228-2.7135 2.15204-.2807-1.23976-1.38008-2.15204-2.71342-2.15204-1.54385 0-2.78362 1.23977-2.78362 2.78363 0 1.14619.70178 2.15209 1.70762 2.57309h-.60821v5.9883h2.05849v1.2631h4.98244v-1.2631h2.0585v-1.4035h1.0994l3.0175 1.9415v-7.0643zm-5.8011-3.3216c.2105.8655.8187 1.5906 1.614 1.9181h-3.2515c.81871-.3509 1.4269-1.0526 1.6375-1.9181zm-2.69009.7017c-.74853 0-1.33335-.6082-1.33335-1.33331 0-.74854.60821-1.33332 1.33335-1.33332.74854 0 1.33328.60817 1.33328 1.33332 0 .72511-.60813 1.33331-1.33328 1.33331zm4.86549 3.8363h-4.14035v-.7018h4.14035zm.538-3.8363c-.7485 0-1.3333-.6082-1.3333-1.33331 0-.74854.6082-1.33332 1.3333-1.33332.7252 0 1.3333.60817 1.3333 1.33332 0 .72511-.5848 1.33331-1.3333 1.33331z" fill="#fff"/></g></svg>