<svg width="24" height="25" viewBox="0 0 24 25" fill="none" xmlns="http://www.w3.org/2000/svg">
<g clip-path="url(#clip0)">
<circle cx="11.9998" cy="12.855" r="12" fill="#CE3B27"/>
<path d="M10.2571 8.80811C10.2571 8.80811 7.05239 12.1531 1.99976 11.5683C1.99976 11.5683 2.39741 18.3052 9.29799 20.1297C9.2746 20.1531 14.0699 15.849 10.2571 8.80811ZM4.43245 15.1005C4.78333 11.428 7.05233 14.2116 7.05233 14.2116C5.20437 13.8841 4.43245 15.1005 4.43245 15.1005ZM6.23367 16.387C8.7132 16.8315 9.74244 15.1941 9.74244 15.1941C9.27461 20.1297 6.23367 16.387 6.23367 16.387ZM7.8243 14.0245C8.17518 10.352 10.4442 13.1356 10.4442 13.1356C8.59622 12.8081 7.8243 14.0245 7.8243 14.0245Z" fill="#FFDA7E"/>
<path d="M21.2279 6.70292C21.2279 6.70292 16.7601 7.9427 12.7133 4.85498C12.7133 4.85498 9.6022 10.8433 14.5847 15.9427C14.5847 15.9427 20.9238 14.7029 21.2279 6.70292ZM13.0174 9.11227C15.1929 6.14151 15.7075 9.69707 15.7075 9.69707C14.304 8.4807 13.0174 9.11227 13.0174 9.11227ZM13.4385 13.0655C16.3625 9.08889 17.0642 13.8374 17.0642 13.8374C15.1694 12.1766 13.4385 13.0655 13.4385 13.0655ZM16.456 9.931C18.6315 6.96024 19.1461 10.5158 19.1461 10.5158C17.7426 9.29942 16.456 9.931 16.456 9.931Z" fill="#FFDA7E"/>
</g>
<defs>
<clipPath id="clip0">
<rect width="24" height="24" fill="white" transform="translate(-0.000244141 0.85498)"/>
</clipPath>
</defs>
</svg>
