<svg width="24" height="25" viewBox="0 0 24 25" fill="none" xmlns="http://www.w3.org/2000/svg">
<g clip-path="url(#clip0)">
<circle cx="11.9998" cy="12.855" r="12" fill="#F26622"/>
<path d="M18.0354 12.3183C18.9914 12.3183 19.7664 11.8051 19.7664 11.1721C19.7664 10.539 18.9914 10.0259 18.0354 10.0259C17.0794 10.0259 16.3044 10.539 16.3044 11.1721C16.3044 11.8051 17.0794 12.3183 18.0354 12.3183Z" fill="#58B947"/>
<path d="M18.1519 15.2872C19.1467 15.2872 19.9531 14.6798 19.9531 13.9305C19.9531 13.1812 19.1467 12.5737 18.1519 12.5737C17.1571 12.5737 16.3508 13.1812 16.3508 13.9305C16.3508 14.6798 17.1571 15.2872 18.1519 15.2872Z" fill="#63CCEE"/>
<path d="M15.0642 17.4883C16.1236 17.4883 16.9824 16.7551 16.9824 15.8508C16.9824 14.9465 16.1236 14.2134 15.0642 14.2134C14.0049 14.2134 13.1462 14.9465 13.1462 15.8508C13.1462 16.7551 14.0049 17.4883 15.0642 17.4883Z" fill="#FAA21B"/>
<path d="M10.6197 18.1667C11.7824 18.1667 12.7249 17.2975 12.7249 16.2252C12.7249 15.1529 11.7824 14.2837 10.6197 14.2837C9.45702 14.2837 8.5144 15.1529 8.5144 16.2252C8.5144 17.2975 9.45702 18.1667 10.6197 18.1667Z" fill="#FFE627"/>
<path d="M20.3741 11.0297C17.8712 7.8484 14.6899 7.68465 12.491 7.59109C10.9004 7.52091 9.00568 8.01216 10.9004 8.92444C12.8653 9.8835 12.187 11.3572 8.60806 10.1876C5.02912 9.01799 -1.89494 13.7666 6.92378 17.8133C14.5963 21.3455 23.6021 15.1466 20.3741 11.0297ZM6.26888 15.9654C5.19286 15.9654 4.32732 15.1934 4.32732 14.211C4.32732 13.2285 5.19286 12.4566 6.26888 12.4566C7.34491 12.4566 8.2103 13.2285 8.2103 14.211C8.2103 15.1934 7.34491 15.9654 6.26888 15.9654ZM18.0817 10.2812C18.6431 10.2812 19.0876 10.6788 19.0876 11.17C19.0876 11.6613 18.6431 12.0589 18.0817 12.0589C17.5203 12.0589 17.0759 11.6613 17.0759 11.17C17.0759 10.6788 17.5437 10.2812 18.0817 10.2812ZM10.6898 17.8601C9.68398 17.8601 8.88875 17.1349 8.88875 16.2461C8.88875 15.3572 9.68398 14.632 10.6898 14.632C11.6957 14.632 12.491 15.3572 12.491 16.2461C12.491 17.1349 11.6957 17.8601 10.6898 17.8601ZM14.994 17.1817C14.1285 17.1817 13.4268 16.5502 13.4268 15.7782C13.4268 15.0063 14.1285 14.3747 14.994 14.3747C15.8595 14.3747 16.5612 15.0063 16.5612 15.7782C16.5612 16.5502 15.8595 17.1817 14.994 17.1817ZM18.0817 15.0297C17.38 15.0297 16.8185 14.5151 16.8185 13.8835C16.8185 13.2519 17.38 12.7373 18.0817 12.7373C18.7835 12.7373 19.3448 13.2519 19.3448 13.8835C19.3682 14.5151 18.7835 15.0297 18.0817 15.0297Z" fill="white"/>
</g>
<defs>
<clipPath id="clip0">
<rect width="24" height="24" fill="white" transform="translate(-0.000244141 0.85498)"/>
</clipPath>
</defs>
</svg>
