<svg width="24" height="24" viewBox="0 0 24 24" fill="none" xmlns="http://www.w3.org/2000/svg">
<g clip-path="url(#clip0)">
<circle cx="12.0002" cy="12" r="12" fill="#533F60"/>
<path d="M12.6089 12.8987C15.5796 12.2905 16.7493 10.2554 16.4686 8.10337C16.1879 5.95132 15.0417 3.02734 15.0417 3.02734H8.95973C8.95973 3.02734 7.81357 5.95132 7.53286 8.10337C7.25216 10.2554 8.42181 12.2905 11.3926 12.8987L11.0182 19.963L8.09425 20.5244V20.9689H15.9306V20.5244L13.0066 19.963L12.6089 12.8987Z" fill="white"/>
<path d="M15.5798 8.59424H8.4219C8.21137 10.3018 9.12367 11.9393 11.5096 12.4305H12.4921C14.878 11.9393 15.7903 10.3018 15.5798 8.59424Z" fill="#A11D22"/>
</g>
<defs>
<clipPath id="clip0">
<rect width="24" height="24" fill="white" transform="translate(0.000244141)"/>
</clipPath>
</defs>
</svg>
