<svg fill="none" height="32" viewBox="0 0 32 32" width="32" xmlns="http://www.w3.org/2000/svg"><circle cx="16" cy="16" fill="#fddf02" r="16"/><path d="m22.7344 22.0705c.7292-.205 1.2656-.8756 1.2656-1.6694 0-.2447-.0728-.6879-.7026-1.7088-.3234-.5241-.6422-.9539-.6556-.972l-.3762-.5059-.3761.5059c-.0134.0181-.3323.4479-.6556.972-.1051.1704-.1944.3243-.2707.4643v-9.29201h-1.1667v-1.86459h-7.593v1.86459h-1.1667v9.29201c-.0763-.14-.1656-.2939-.2707-.4643-.3233-.5242-.6422-.954-.6556-.972l-.37612-.5059-.37616.5059c-.01341.0181-.33225.4479-.6556.972-.62978 1.0209-.70262 1.4641-.70262 1.7087 0 .7939.53637 1.4645 1.26562 1.6695v.992h-1.26562v.9375h16v-.9375h-1.2656zm-11.6976.992h-.8337v-.992c.3272-.0919.6153-.2775.8337-.526zm3.0986-1.2683h-.9375v-1.3333h.9375zm0-2.8124h-.9375v-1.3334h.9375zm0-2.8125h-.9375v-1.3334h.9375zm0-2.8125h-.9375v-1.3334h.9375zm2.3334 8.4374h-.9376v-1.3333h.9376zm0-2.8124h-.9376v-1.3334h.9376zm0-2.8125h-.9376v-1.3334h.9376zm0-2.8125h-.9376v-1.3334h.9376zm2.3333 8.4374h-.9375v-1.3333h.9375zm0-2.8124h-.9375v-1.3334h.9375zm0-2.8125h-.9375v-1.3334h.9375zm0-2.8125h-.9375v-1.3334h.9375zm2.9948 9.7057h-.8337v-1.5181c.2184.2486.5066.4341.8337.5261z" fill="#000"/></svg>