<svg width="24" height="24" viewBox="0 0 24 24" fill="none" xmlns="http://www.w3.org/2000/svg">
<g clip-path="url(#clip0)">
<circle cx="12" cy="12.0005" r="12" fill="#8B5E3C"/>
<path d="M19.5283 12.6782C19.2005 12.1162 18.6854 11.6948 18.0766 11.5074C17.8659 11.4372 17.6318 11.4138 17.4211 11.4138C16.8825 11.4138 16.3674 11.6011 15.9459 11.9289V10.8518C15.9459 10.8518 15.7819 10.126 15.2668 10.126C14.7517 10.126 7.46985 10.126 7.46985 10.126C6.95472 10.126 6.55664 10.5474 6.55664 11.0391V19.0938C6.55664 19.6089 6.97814 20.007 7.46985 20.007H15.2668C15.2668 20.007 15.9459 19.8431 15.9459 19.2811C15.9459 18.7191 15.9459 18.0635 15.9459 18.0635C16.0864 18.1338 16.2035 18.204 16.3674 18.2274C16.5781 18.2977 16.8122 18.3211 17.0229 18.3211C18.3575 18.2977 19.5284 17.1972 19.9264 15.6518C20.0201 15.3006 20.0669 14.926 20.0669 14.5748C20.0435 13.8957 19.8561 13.2167 19.5283 12.6782ZM18.8024 15.3474C18.5215 16.4479 17.7021 17.1035 16.9996 17.1035C16.8825 17.1035 16.7654 17.0801 16.6483 17.0567C16.3674 16.9631 16.1332 16.7757 15.9225 16.4948V13.6148C16.2971 12.9826 16.8825 12.6079 17.3976 12.6313C17.5147 12.6313 17.6317 12.6548 17.7488 12.6782C18.0766 12.7718 18.3576 13.006 18.5684 13.3338C18.7791 13.6616 18.8962 14.1065 18.8962 14.5982C18.8962 14.8557 18.8727 15.0899 18.8024 15.3474Z" fill="white"/>
<path d="M10.6309 6.77734C10.8417 6.96466 11.0992 7.08173 11.3568 7.1988C11.708 7.36271 11.8953 7.26905 11.6612 7.76076C11.5207 8.04173 11.0993 8.18222 10.8183 8.25246C10.4905 8.34612 11.146 9.21246 11.4973 9.11881C12.1763 8.93149 12.9021 8.41637 12.6446 7.62027C12.4104 6.96466 11.8484 6.80076 11.3099 6.56661C11.6845 6.16856 12.4339 5.98124 12.5978 5.34905C12.7617 4.71685 11.8251 3.991 12.1295 3.54612C12.3402 3.21832 11.4972 2.49246 11.3333 2.75002C10.9119 3.40563 11.4037 3.59295 11.591 4.20173C11.9891 5.44271 10.5608 5.32563 10.2798 6.16856C10.1861 6.37929 10.5139 6.66027 10.6309 6.77734Z" fill="white"/>
</g>
<defs>
<clipPath id="clip0">
<rect width="24" height="24" fill="white" transform="translate(0 0.000488281)"/>
</clipPath>
</defs>
</svg>
