<svg width="24" height="25" viewBox="0 0 24 25" fill="none" xmlns="http://www.w3.org/2000/svg">
<g clip-path="url(#clip0)">
<path d="M12 24.8555C18.6274 24.8555 24 19.4829 24 12.8555C24 6.22805 18.6274 0.855469 12 0.855469C5.37258 0.855469 0 6.22805 0 12.8555C0 19.4829 5.37258 24.8555 12 24.8555Z" fill="#317A4E"/>
<path d="M16.3934 14.3724C16.0408 14.3724 15.7058 14.437 15.3914 14.5457C15.1975 13.7495 14.9713 12.8033 14.8361 12.2421L15.174 12.5771C15.5384 12.5771 15.9967 12.5448 16.1054 12.3097C16.2171 12.0746 16.1525 11.7573 15.8998 11.7573C15.8557 11.7573 15.7793 11.7573 15.6853 11.7573C15.7235 11.5428 15.6676 11.3871 15.412 11.2167C15.0212 10.9552 15.0388 11.0315 14.7979 10.7524C14.557 10.4733 13.2142 8.77788 13.2142 8.77788C13.2142 8.77788 12.8234 8.33125 12.1241 7.57611L12.4032 6.93263C12.4032 6.93263 12.462 6.95613 12.5501 6.9767L12.5619 7.0149L12.7675 7.04428L12.7617 7.01784C12.8792 7.03253 13.0055 7.03253 13.1054 6.98845C13.3581 6.8768 13.2671 6.30089 13.5697 6.20687C13.9223 6.09521 13.5521 6.00119 13.4845 5.5722C13.4786 5.53987 13.4727 5.50755 13.461 5.47817H13.7724C13.7724 5.47817 14.1368 4.10892 12.459 4.08248C10.7813 4.0531 11.2308 5.47817 11.2308 5.47817L11.2396 5.74849C10.887 5.82195 10.8018 5.79551 10.4287 5.61921C10.0555 5.44291 9.83219 5.42234 9.54424 5.54575C9.25628 5.66622 8.95658 5.8337 8.6128 5.50755C8.6128 5.50755 8.54815 6.21568 9.21809 6.2627C9.88802 6.30971 9.95266 6.25388 10.2906 6.44781C10.6255 6.64467 11.128 6.52126 11.4835 6.13929C11.4835 6.13929 11.5011 6.41842 11.6598 6.48307C11.7009 6.5007 11.7274 6.50951 11.7509 6.50657L11.7626 6.56534L11.5041 7.08248C11.1956 6.95613 10.8106 6.97082 10.4492 7.45858C10.3963 7.5291 10.0291 6.84448 9.27685 7.01196C8.52171 7.17944 8.04864 7.65545 8.46588 8.07269C8.46588 8.07269 7.01143 9.13341 7.65491 9.72107C8.08978 10.1177 8.33366 10.438 8.61867 10.3939C8.5746 10.4615 8.54815 10.5027 8.54815 10.5027C8.32191 10.8406 8.27489 11.3107 8.37479 11.8014C8.0604 11.866 7.93405 12.0717 8.01632 12.3097C8.09859 12.5418 8.31015 12.5624 8.6128 12.5007C8.6745 12.63 8.74502 12.7563 8.82435 12.8797C9.02122 13.1824 9.21515 13.4527 9.38263 13.6731L8.66569 14.7838C8.21613 14.5193 7.69605 14.3665 7.14071 14.3665C5.46882 14.3665 4.11133 15.7269 4.11133 17.3959C4.11133 19.0678 5.47176 20.4253 7.14071 20.4253C8.53346 20.4253 9.70878 19.4791 10.0584 18.1951L11.1603 18.2715L10.9869 18.7034L10.5286 18.5154L10.4081 18.8092L11.7186 19.344L11.839 19.0502C11.8949 19.0707 11.9448 19.0913 11.9889 19.106C12.3062 19.2176 12.744 19.4233 12.744 19.4233C12.744 19.4233 12.9497 19.3205 12.65 19.0884C12.3503 18.8562 11.9037 18.3714 11.9037 18.3714L11.8714 18.2157C12.2445 18.1275 12.5237 17.7926 12.5237 17.393C12.5237 17.199 12.4561 17.0227 12.3474 16.8788L12.7205 16.3557L12.8733 16.4174L12.9732 16.1736L13.2759 16.2999C13.2759 16.2999 13.2582 16.2441 13.2759 16.1412C13.2876 16.0795 13.173 16.009 13.0349 15.9209L14.7274 13.5555C14.8185 13.9375 14.9154 14.3342 15.0036 14.6985C14.0281 15.201 13.3581 16.2176 13.3581 17.39C13.3581 19.0619 14.7186 20.4194 16.3875 20.4194C18.0594 20.4194 19.4169 19.059 19.4169 17.39C19.4228 15.7299 18.0653 14.3724 16.3934 14.3724ZM11.6686 12.4361L12.7764 12.6505C12.7764 12.6505 12.6735 12.7358 12.5707 12.9473H10.5726L10.2259 12.0717L10.2436 11.9806L11.6686 12.4361ZM9.56187 13.9111C9.74404 14.1432 9.86157 14.2813 9.86157 14.2813L10.4022 15.0364C10.4022 15.0364 10.27 15.6564 10.7107 16.5555L10.0614 16.5996C9.87333 15.9209 9.45903 15.3362 8.89781 14.9365L9.56187 13.9111ZM7.71662 16.7671L8.6128 15.3802C9.03885 15.6887 9.36206 16.1295 9.52661 16.6408L7.71662 16.7671ZM7.36402 17.8807C7.5462 17.7955 7.67254 17.6133 7.67254 17.4018C7.67254 17.2666 7.61965 17.1432 7.53444 17.0492L7.62847 16.9052L9.56187 16.77C9.61476 16.9728 9.64708 17.1843 9.64708 17.4018C9.64708 17.6221 9.61476 17.8337 9.56187 18.0364L7.36402 17.8807ZM10.0966 16.7318L10.7754 16.6848C10.8341 16.8024 10.887 16.914 10.9311 17.0198C10.8723 17.1344 10.8371 17.2637 10.8371 17.4018C10.8371 17.7015 10.9958 17.9659 11.2308 18.1158L11.2161 18.151L10.0966 18.0717C10.1466 17.8543 10.173 17.631 10.173 17.4018C10.173 17.1726 10.1436 16.9463 10.0966 16.7318ZM7.14365 19.9052C5.76265 19.9052 4.64022 18.7828 4.64022 17.4018C4.64022 16.0208 5.76265 14.8983 7.14365 14.8983C7.59615 14.8983 8.01926 15.0218 8.38361 15.2304L7.37577 16.7906L7.13777 16.8082L7.14365 16.8729C6.84982 16.8729 6.61476 17.1109 6.61476 17.4018C6.61476 17.6927 6.85276 17.9307 7.14365 17.9307L7.13777 17.9953L9.52661 18.1628C9.20339 19.1736 8.25726 19.9052 7.14365 19.9052ZM12.033 16.6319C11.9272 16.5849 11.8097 16.5555 11.6833 16.5555L11.6774 16.4909L11.5217 16.5027C11.4042 15.915 11.3072 15.3714 11.2955 15.1892C11.2661 14.7338 10.8665 13.6995 10.8665 13.6995L10.7342 13.3646H12.4267C12.4179 13.3969 12.412 13.4233 12.4032 13.4586C12.3797 13.582 12.3474 13.723 12.3121 13.8699L12.2886 13.8611L12.0095 15.1011L11.7039 15.6182L11.6833 15.6094L11.5628 15.9032L12.3297 16.2176L12.033 16.6319ZM12.7147 15.6799C12.5384 15.4948 12.4061 15.2509 12.4061 15.2509L12.9938 14.1608L12.9703 14.1491C13.1055 13.8817 13.2494 13.6026 13.3728 13.3587H14.3777L12.7147 15.6799ZM13.5815 12.9503C13.6549 12.8063 13.7078 12.7005 13.7284 12.6623C13.84 12.439 13.8018 12.1863 13.5139 12.0012C13.2259 11.8161 12.1358 11.2372 12.1358 11.2372L10.6637 10.5644L11.3719 9.58885C12.0153 9.64467 12.1828 9.00119 12.1828 9.00119L12.5736 9.42136L13.1407 9.84154C13.1407 9.84154 14.0721 10.8112 14.4806 11.1256C14.8332 11.3959 15.1006 11.5193 15.1916 11.7602C15.0271 11.7602 14.8596 11.7602 14.7186 11.7602C14.7186 11.7544 14.7156 11.7514 14.7156 11.7514C14.6892 11.6398 14.5775 11.5722 14.4688 11.5986C14.3572 11.6251 14.2896 11.7367 14.316 11.8455C14.319 11.8572 14.4306 12.3303 14.5805 12.9532H13.5815V12.9503ZM16.3934 19.9052C15.0124 19.9052 13.89 18.7828 13.89 17.4018C13.89 16.4791 14.3924 15.6741 15.1388 15.2392C15.2093 15.5271 15.271 15.7651 15.3092 15.9091C15.4443 16.4116 15.7646 16.9111 15.9909 17.2225C15.9674 17.2784 15.9527 17.3371 15.9527 17.4018C15.9527 17.6457 16.1495 17.8425 16.3934 17.8425C16.6373 17.8425 16.8341 17.6457 16.8341 17.4018C16.8341 17.1579 16.6373 16.961 16.3934 16.961C16.367 16.961 16.3405 16.964 16.3141 16.9698C16.1084 16.6848 15.8204 16.2382 15.7029 15.8033C15.6618 15.6476 15.5942 15.3832 15.5149 15.06C15.7881 14.9571 16.0819 14.8983 16.3905 14.8983C17.7715 14.8983 18.8939 16.0208 18.8939 17.4018C18.8968 18.7828 17.7744 19.9052 16.3934 19.9052Z" fill="white"/>
</g>
<defs>
<clipPath id="clip0">
<rect width="24" height="24" fill="white" transform="translate(0 0.855469)"/>
</clipPath>
</defs>
</svg>
