<svg width="24" height="25" viewBox="0 0 24 25" fill="none" xmlns="http://www.w3.org/2000/svg">
<g clip-path="url(#clip0)">
<path d="M12 24.8555C18.6274 24.8555 24 19.4829 24 12.8555C24 6.22805 18.6274 0.855469 12 0.855469C5.37258 0.855469 0 6.22805 0 12.8555C0 19.4829 5.37258 24.8555 12 24.8555Z" fill="#317A4E"/>
<path d="M8.83789 12.4021C8.30142 12.4021 7.86377 12.8398 7.86377 13.3762C7.86377 13.9127 8.30142 14.3503 8.83789 14.3503C9.37436 14.3503 9.81201 13.9127 9.81201 13.3762C9.81201 12.8398 9.37436 12.4021 8.83789 12.4021ZM8.86611 13.9268C8.56964 13.9268 8.34376 13.6868 8.34376 13.4044C8.34376 13.108 8.58376 12.8821 8.86611 12.8821C9.16258 12.8821 9.38848 13.1221 9.38848 13.4044C9.38848 13.6868 9.16258 13.9268 8.86611 13.9268Z" fill="white"/>
<path d="M15.1621 12.4021C14.6256 12.4021 14.188 12.8398 14.188 13.3762C14.188 13.9127 14.6256 14.3503 15.1621 14.3503C15.6986 14.3503 16.1362 13.9127 16.1362 13.3762C16.1362 12.8398 15.6986 12.4021 15.1621 12.4021ZM15.1339 13.9268C14.8374 13.9268 14.6115 13.6868 14.6115 13.4044C14.6115 13.108 14.8515 12.8821 15.1339 12.8821C15.4303 12.8821 15.6562 13.1221 15.6562 13.4044C15.6562 13.6868 15.4162 13.9268 15.1339 13.9268Z" fill="white"/>
<path d="M20.0328 10.3001C19.9763 8.98718 19.0305 7.87189 18.2399 8.45071C17.4493 9.02953 16.0799 9.72129 16.0799 9.72129C15.134 8.50717 13.9199 8.45071 12.1269 8.45071H11.8728C10.0799 8.45071 8.86576 8.50717 7.91987 9.72129C7.91987 9.72129 6.55046 9.04365 5.75988 8.45071C4.96929 7.87189 4.02342 8.97306 3.96695 10.3001C3.9246 11.3731 4.40459 12.1495 5.12459 12.6154C4.814 13.2366 4.87047 14.0131 5.27988 14.9872C5.8587 16.3566 6.22576 17.5142 6.22576 17.5142C6.22576 17.5142 7.32694 17.1472 7.75047 17.6695C8.174 18.1919 8.59753 18.5166 9.27518 18.9401C9.27518 18.9401 9.21869 19.6742 10.2775 20.1542C11.1387 20.5354 11.774 20.5354 11.9858 20.5354C12.1975 20.5495 12.8328 20.5495 13.694 20.1542C14.7528 19.6742 14.6963 18.9401 14.6963 18.9401C15.374 18.5166 15.7975 18.206 16.2211 17.6695C16.6446 17.1472 17.7458 17.5142 17.7458 17.5142C17.7458 17.5142 18.1128 16.3566 18.6916 14.9872C19.1152 13.999 19.1575 13.2366 18.8469 12.6154C19.5952 12.1495 20.0752 11.3589 20.0328 10.3001ZM5.74577 11.8531C5.16694 11.4013 4.96929 10.9072 4.96929 10.1448C4.96929 9.25539 5.33636 9.50951 5.97165 9.87656C6.35283 10.1024 6.88928 10.3424 7.25634 10.4977C6.71987 11.0624 6.31047 11.359 5.74577 11.8531ZM8.9787 14.9307C8.24458 15.0295 8.18812 14.8742 7.70812 14.6625C7.22812 14.4507 6.60694 14.6625 6.494 13.5613V13.2507C6.59282 12.5731 7.22812 11.8248 8.28695 11.6131C9.34577 11.4013 10.5458 11.7684 10.7152 12.559C10.8705 13.3495 10.5599 13.8295 10.2352 14.0836C9.92458 14.3519 9.71281 14.8178 8.9787 14.9307ZM13.9905 18.2766C13.5387 18.5448 13.1575 18.686 12.8469 18.686C12.6916 18.686 12.5646 18.6578 12.4375 18.5872C12.254 18.4742 12.1269 18.2907 12.0281 18.0648C11.9434 18.2907 11.8164 18.4742 11.6187 18.5872C11.5058 18.6578 11.3646 18.686 11.2093 18.686C10.8987 18.686 10.5316 18.5448 10.0658 18.2766C9.99517 18.2342 9.96695 18.1354 10.0093 18.0648C10.0517 17.9942 10.1505 17.966 10.2211 18.0083C10.7858 18.3472 11.1952 18.4601 11.4493 18.3189C11.7034 18.1778 11.8163 17.7684 11.8446 17.2742C11.8446 17.246 11.8446 17.2177 11.8446 17.2036C11.6469 17.1895 11.4069 17.1472 11.2093 16.9495C10.9411 16.6813 10.574 16.4272 10.8422 16.0601C11.1105 15.693 11.3646 15.6931 11.6328 15.6931H12.3811C12.6493 15.6931 12.9034 15.693 13.1716 16.0601C13.4399 16.4272 13.0728 16.6954 12.8046 16.9495C12.6069 17.1472 12.3669 17.1895 12.1693 17.2036C12.1693 17.2319 12.1693 17.2601 12.1693 17.2742C12.2117 17.7684 12.3105 18.1778 12.5646 18.3189C12.8046 18.4601 13.2281 18.3613 13.7928 18.0083C13.8634 17.966 13.9622 17.9942 14.0046 18.0648C14.0893 18.1354 14.0752 18.2342 13.9905 18.2766ZM17.5058 13.5613C17.4069 14.6625 16.7716 14.4507 16.2916 14.6625C15.8116 14.8742 15.7693 15.0295 15.021 14.9307C14.2869 14.8319 14.0752 14.3519 13.7505 14.0836C13.4399 13.8154 13.1152 13.3495 13.2705 12.559C13.4258 11.7684 14.6399 11.4013 15.6987 11.6131C16.7575 11.8248 17.3787 12.5589 17.4916 13.2507V13.5613H17.5058ZM18.254 11.8531C17.6752 11.359 17.2658 11.0624 16.7434 10.4977C17.1105 10.3424 17.6469 10.1024 18.0281 9.87656C18.6634 9.50951 19.0305 9.24127 19.0305 10.1448C19.0305 10.893 18.8328 11.3872 18.254 11.8531Z" fill="white"/>
</g>
<defs>
<clipPath id="clip0">
<rect width="24" height="24" fill="white" transform="translate(0 0.855469)"/>
</clipPath>
</defs>
</svg>
