<svg width="24" height="25" viewBox="0 0 24 25" fill="none" xmlns="http://www.w3.org/2000/svg">
<g clip-path="url(#clip0)">
<circle cx="12" cy="12.8555" r="12" fill="#0351A0"/>
<path d="M16.3216 13.6154H15.2222V12.212H14.2865C15.2924 11.7909 15.9942 10.8084 15.9942 9.63885C15.9942 8.095 14.7544 6.85522 13.2105 6.85522C11.9006 6.85522 10.8012 7.7675 10.4971 9.00727C10.2164 7.7675 9.11696 6.85522 7.78363 6.85522C6.23977 6.85522 5 8.095 5 9.63885C5 10.7851 5.70178 11.7909 6.70763 12.212H6.09942V18.2003H8.15791V19.4634H13.1404V18.2003H15.1989V16.7967H16.2983L19.3158 18.7382V11.6739L16.3216 13.6154ZM10.5205 10.2938C10.731 11.1593 11.3392 11.8845 12.1345 12.212H8.88305C9.70176 11.8611 10.31 11.1593 10.5205 10.2938ZM7.83046 10.9956C7.08192 10.9956 6.49711 10.3874 6.49711 9.66223C6.49711 8.9137 7.10531 8.32892 7.83046 8.32892C8.579 8.32892 9.16374 8.93709 9.16374 9.66223C9.16374 10.3874 8.5556 10.9956 7.83046 10.9956ZM12.6959 14.8318H8.5556V14.13H12.6959V14.8318ZM13.234 10.9956C12.4854 10.9956 11.9006 10.3874 11.9006 9.66223C11.9006 8.9137 12.5088 8.32892 13.234 8.32892C13.9591 8.32892 14.5672 8.93709 14.5672 9.66223C14.5672 10.3874 13.9825 10.9956 13.234 10.9956Z" fill="white"/>
<path d="M12 24.8555C18.6274 24.8555 24 19.4829 24 12.8555C24 6.22805 18.6274 0.855469 12 0.855469C5.37258 0.855469 0 6.22805 0 12.8555C0 19.4829 5.37258 24.8555 12 24.8555Z" fill="#317A4E"/>
<path d="M18.9458 18.0633C18.9034 17.7669 18.6352 16.1716 18.6069 15.9598C18.5787 15.7481 18.494 15.7904 18.1269 15.7622C17.7317 15.7339 17.6187 15.9457 17.6046 15.9739L15.9952 15.8186C15.9952 15.8186 15.247 15.7198 14.8376 15.6351C14.414 15.5504 14.1034 15.7198 14.1034 15.7198C14.1034 15.7198 13.7505 14.8728 13.4117 14.4069C13.6658 14.181 13.8352 13.9974 13.8352 13.9974L13.0728 12.9386C13.3411 12.2045 13.1575 11.3433 13.1575 11.3433C13.1575 11.3433 13.0728 11.0045 13.0022 10.5245C13.4964 10.2845 14.2446 9.91746 14.4281 9.77629C14.7105 9.5504 14.2728 8.78804 13.9905 8.22334C13.7081 7.65863 13.454 6.99511 13.1293 6.51511L13.1152 6.5716C13.0305 6.38807 12.8893 6.23275 12.7199 6.10569C12.5081 5.9504 12.2964 5.83744 12.0846 5.78097C12.0422 5.58332 11.9999 5.38568 11.9717 5.21627C12.0281 5.18804 12.0987 5.1457 12.1411 5.061C12.1411 5.061 12.2117 4.79274 12.3952 4.51039C12.5787 4.22804 12.4799 3.59276 12.367 3.33864C12.254 3.08453 12.1975 3.02803 11.9575 2.95744C11.7175 2.88685 11.4211 2.94333 11.1528 2.78803C10.8705 2.63274 10.7293 2.61864 10.3481 3.02805C9.96693 3.43747 10.2634 3.53627 10.2634 3.53627C10.2634 3.53627 10.2916 3.52217 10.3481 3.50805C10.2775 3.62099 10.2211 3.74803 10.207 3.88921C10.1505 4.31274 9.83987 4.48218 9.99517 4.66571C10.1505 4.86335 10.1928 4.9763 10.1787 5.24453C10.1646 5.51277 10.2352 5.65393 10.5599 5.6257C10.8846 5.59746 10.927 5.4563 11.0823 5.90807C11.0964 5.95042 11.1105 5.97862 11.1105 6.00686C11.054 6.04921 10.9834 6.09157 10.9128 6.14804C10.1646 6.79745 10.1646 8.05392 10.207 8.97157C10.207 9.05628 10.2211 9.14099 10.2211 9.23981C10.1787 9.23981 10.1364 9.22568 10.094 9.22568C9.374 9.12685 8.95049 9.25393 8.8799 9.11276C8.80932 8.97158 8.76697 8.70335 8.39991 8.59041C8.03285 8.47747 8.01873 8.61863 7.86343 8.92922C7.70814 9.23981 7.58106 9.42334 7.934 9.50805C8.30106 9.59275 8.89399 9.70567 8.89399 9.70567C8.89399 9.70567 9.68459 10.0869 10.3199 10.341C10.3481 10.3551 10.3764 10.3551 10.4046 10.3692C10.5316 10.9621 10.6728 11.4704 10.6728 11.4704C10.6728 11.4704 10.4046 12.3175 10.207 12.6563C9.9952 12.9951 9.2752 14.4069 9.2752 14.4069C9.31755 14.4633 9.374 14.5057 9.43047 14.5621C9.24694 14.8304 8.9646 15.2681 8.82342 15.5222C8.61166 15.9175 8.59752 15.9881 8.62575 16.4822C8.66811 16.9763 8.93634 19.0798 8.93634 19.0798L9.00696 20.4069C9.00696 20.4069 9.06342 19.9268 8.51283 20.2939C7.96224 20.661 8.08931 20.6186 7.63754 20.788C7.22813 20.9433 7.10108 20.9434 7.0305 21.2116C6.95991 21.4798 7.1152 21.4657 7.42579 21.4516C7.75049 21.4233 9.43049 21.4375 9.67049 21.4233C9.91049 21.4092 9.86813 21.3104 9.9246 20.9292C9.99518 20.4775 9.74106 20.3504 9.74106 20.3504L9.78341 19.0233C9.78341 19.0233 9.75517 17.8516 9.82576 17.1598C9.89635 16.4822 9.57168 16.5528 9.76932 16.3128C9.93873 16.101 10.1646 15.9457 10.5034 15.4375C10.7011 15.5787 10.8422 15.6775 10.8422 15.6775L11.5622 14.6468L12.1976 15.3669C12.2258 15.3527 12.2399 15.3386 12.2681 15.3245C12.4799 15.6492 12.974 16.341 13.1434 16.5387C13.3693 16.7928 13.5811 16.8634 13.9623 16.8069C14.3434 16.7504 16.0517 16.7363 16.0517 16.7363L17.7458 16.6092C17.7317 16.6375 17.7176 16.6657 17.7034 16.6939C17.7034 16.6939 17.2658 16.6798 17.647 17.1598C18.0281 17.6398 18.2117 17.7528 18.2681 17.9363C18.4093 18.3175 18.494 18.4586 18.7481 18.501C19.0022 18.5433 18.9881 18.3598 18.9458 18.0633ZM12.9317 9.6351C12.9175 9.3104 12.9317 8.98571 12.974 8.68924L13.454 9.25394L12.9317 9.6351Z" fill="white"/>
</g>
<defs>
<clipPath id="clip0">
<rect width="24" height="24" fill="white" transform="translate(0 0.855469)"/>
</clipPath>
</defs>
</svg>
