<svg width="24" height="25" viewBox="0 0 24 25" fill="none" xmlns="http://www.w3.org/2000/svg">
<g clip-path="url(#clip0)">
<path d="M12 24.8555C18.6274 24.8555 24 19.4829 24 12.8555C24 6.22805 18.6274 0.855469 12 0.855469C5.37258 0.855469 0 6.22805 0 12.8555C0 19.4829 5.37258 24.8555 12 24.8555Z" fill="#317A4E"/>
<path d="M15.1482 13.3635C15.4023 12.22 15.7412 12.0365 16.447 11.7824C17.1529 11.5282 18.0282 11.4859 18.2682 12.4459C18.5082 13.4059 18.6353 13.787 18.0706 14.3941C17.52 15.0011 17.2235 15.3682 17.2235 15.3682C17.2235 15.3682 17.8023 15.2412 18.5365 15.9188C19.2706 16.5965 20.2023 17.3729 19.7082 17.8106C19.2 18.2482 18.96 18.6859 18.2118 18.5023C17.4635 18.3329 16.8564 17.9658 16.4329 17.3023C16.4329 17.3023 16.687 18.0082 16.2635 18.6012C15.84 19.18 15.5718 19.8435 15.0353 19.9424C14.4988 20.0412 14.1176 19.5612 13.8635 19.1094C13.6094 18.6577 13.4118 18.1212 13.7082 17.5988C14.0188 17.0765 14.3718 16.5682 14.3718 16.5682C14.3718 16.5682 13.7647 17.5141 12.9741 17.4576C12.1976 17.4012 11.5482 17.2177 11.0682 16.9918C10.5882 16.7659 10.5176 16.3565 10.8141 15.7353C11.1106 15.1141 11.4917 14.5494 12.1976 14.5635C12.9035 14.5635 13.3835 14.4506 13.3835 14.4506C13.3835 14.4506 12.6917 14.1964 12.1835 13.4764C11.6753 12.7564 11.76 12.4741 11.8023 11.74C11.8447 11.02 12.4235 11.0906 13.2988 11.3871C14.1741 11.6977 14.3294 11.8953 14.6965 12.5447C15.0635 13.2223 15.1482 13.3635 15.1482 13.3635Z" fill="white"/>
<path d="M14.4004 14.3506C14.6969 14.5482 14.7534 14.4777 15.1204 14.4918C15.5016 14.5059 15.7981 14.7036 15.9392 15.0424C16.0804 15.3812 16.2498 15.7483 16.2498 15.7483C16.2498 15.7483 16.5463 16.3553 16.2498 16.5671C15.9534 16.7788 15.7134 16.68 15.4028 17.2729C15.4028 17.2729 15.1628 17.0047 15.2475 16.6659C15.3322 16.3412 15.0781 16.2141 14.8945 16.0447C14.711 15.8753 13.9204 15.8612 13.9204 15.8612C13.9204 15.8612 14.5557 15.6776 14.7534 15.5365C14.9369 15.3812 14.9369 15.1976 14.6122 14.9718C14.2875 14.7318 14.4004 14.3506 14.4004 14.3506Z" fill="#317A4E"/>
<path d="M8.52687 12.4873C9.54334 11.9085 9.9104 12.0355 10.5739 12.3885C11.2375 12.7414 11.8445 13.3626 11.3081 14.1814C10.7575 15.0002 10.5457 15.3532 9.72686 15.3532C8.90804 15.3532 8.44217 15.3814 8.44217 15.3814C8.44217 15.3814 8.92217 15.7203 8.90806 16.7226C8.89394 17.725 8.95041 18.9391 8.28688 18.8543C7.62335 18.7696 7.12923 18.8826 6.76217 18.2049C6.39511 17.5273 6.25392 16.8497 6.46569 16.0873C6.46569 16.0873 6.11275 16.7508 5.39275 16.8355C4.67275 16.9202 4.00921 17.1461 3.57157 16.8214C3.13392 16.4967 3.24687 15.8897 3.40216 15.3956C3.57157 14.9014 3.82569 14.3932 4.41863 14.2661C5.01157 14.1391 5.63275 14.0685 5.63275 14.0685C5.63275 14.0685 4.51745 14.252 4.03745 13.6308C3.55745 13.0097 3.261 12.4026 3.1057 11.8944C2.95041 11.3861 3.20452 11.0614 3.86805 10.8638C4.53158 10.6661 5.19511 10.5814 5.66099 11.1038C6.12688 11.6261 6.53628 11.8944 6.53628 11.8944C6.53628 11.8944 6.26805 11.2026 6.45158 10.3555C6.64922 9.50848 6.91745 9.36732 7.48216 8.91556C8.04687 8.46379 8.38569 8.94379 8.73863 9.79084C9.09157 10.6379 9.04921 10.9061 8.82333 11.5979C8.58333 12.3179 8.52687 12.4873 8.52687 12.4873Z" fill="white"/>
<path d="M7.29852 12.5859C7.35499 12.9389 7.43968 12.9248 7.67968 13.2212C7.91968 13.5177 7.97616 13.8707 7.82087 14.1954C7.66557 14.5201 7.51028 14.8871 7.51028 14.8871C7.51028 14.8871 7.25615 15.5224 6.90321 15.4377C6.55026 15.3671 6.46557 15.1271 5.81616 15.2824C5.81616 15.2824 5.8585 14.9154 6.15497 14.7601C6.46556 14.6048 6.38086 14.3365 6.38086 14.0824C6.38086 13.8283 5.85851 13.2354 5.85851 13.2354C5.85851 13.2354 6.42321 13.5883 6.66321 13.6307C6.90321 13.673 7.03028 13.546 6.98793 13.1507C6.94558 12.7554 7.29852 12.5859 7.29852 12.5859Z" fill="#317A4E"/>
<path d="M14.9365 9.15635C15.6142 9.90459 15.5436 10.1587 15.2754 10.5963C15.0071 11.034 14.4848 11.4293 13.6236 10.9775C12.7624 10.5399 12.3954 10.3705 12.2965 9.79167C12.1977 9.21284 12.113 8.88812 12.113 8.88812C12.113 8.88812 11.8448 9.19872 10.8707 9.12813C9.89654 9.04343 8.72476 9.00107 8.73888 8.54931C8.753 8.09754 8.56947 7.74458 9.17652 7.5187C9.78358 7.30694 10.433 7.25048 11.1954 7.44813C11.1954 7.44813 10.5177 7.15165 10.3483 6.64341C10.1789 6.13518 9.8683 5.65517 10.1365 5.3587C10.4048 5.06223 10.9977 5.18932 11.5059 5.34462C12.0142 5.49991 12.5224 5.71167 12.7201 6.1352C12.9177 6.55873 13.0589 6.99636 13.0589 6.99636C13.0589 6.99636 12.7483 6.20578 13.2989 5.90931C13.8495 5.61284 14.3859 5.44342 14.8659 5.37284C15.3459 5.30225 15.6848 5.49988 15.953 5.97988C16.2212 6.45988 16.3907 6.93989 15.9389 7.22224C15.4871 7.51871 15.2754 7.78694 15.2754 7.78694C15.2754 7.78694 15.9107 7.64576 16.7577 7.82929C17.6048 8.02694 17.7742 8.22461 18.2824 8.64814C18.7907 9.07167 18.3671 9.28343 17.5765 9.48108C16.8001 9.67872 16.5318 9.62223 15.8259 9.41046C15.1201 9.1987 14.9365 9.15635 14.9365 9.15635Z" fill="white"/>
<path d="M14.6964 8.29541C14.3576 8.30953 14.3858 8.366 14.1317 8.5213C13.8776 8.67659 13.5387 8.67658 13.1999 8.54952C12.8611 8.42246 12.494 8.28128 12.494 8.28128C12.494 8.28128 11.8446 8.05542 11.887 7.81542C11.9152 7.57542 12.1411 7.5189 11.9011 7.06714C11.9011 7.06714 12.2682 7.12361 12.4517 7.33538C12.6352 7.54714 12.8893 7.51894 13.1435 7.54718C13.3835 7.56129 13.9058 7.23659 13.9058 7.23659C13.9058 7.23659 13.6235 7.60361 13.6235 7.77302C13.6093 7.94243 13.7505 8.04126 14.1317 8.04126C14.5129 8.04126 14.6964 8.29541 14.6964 8.29541Z" fill="#317A4E"/>
</g>
<defs>
<clipPath id="clip0">
<rect width="24" height="24" fill="white" transform="translate(0 0.855469)"/>
</clipPath>
</defs>
</svg>
