<svg width="24" height="25" viewBox="0 0 24 25" fill="none" xmlns="http://www.w3.org/2000/svg">
<g clip-path="url(#clip0)">
<path d="M12 24.8555C18.6274 24.8555 24 19.4829 24 12.8555C24 6.22805 18.6274 0.855469 12 0.855469C5.37258 0.855469 0 6.22805 0 12.8555C0 19.4829 5.37258 24.8555 12 24.8555Z" fill="#317A4E"/>
<path d="M18.8754 14.973C18.8754 14.973 16.3201 15.806 14.8518 14.5072V13.646H14.1742V13.533H14.273V13.293H14.3436V13.0813H14.273V12.4883H14.3436V12.2766H14.5836V12.0083H14.9648V11.726H15.3742V11.3871L17.4213 10.8931V10.4836C17.4213 10.4836 15.1624 11.1895 14.0189 10.0319H12.593V9.31184V9.1707H12.7342H12.8754V8.80363V8.59187H12.7342V8.80363H12.3389V8.59187H12.3248V8.50717H12.4942V8.21066H12.3248V7.98482H12.4942V7.70245H12.3248V7.47656H12.4942V7.19419H12.3248V6.98244H12.4942V6.7142H12.3248V6.50244H12.4942V6.24833H12.3248V6.05067H12.4942V5.79656H12.3248V5.59893H12.4942V5.35892H12.3248V5.17538H12.4942V4.9354H12.3248V4.75187H12.4942V4.52598H12.3248V4.42715C12.3248 4.30009 12.2119 4.20126 12.0848 4.20126H12.1413V3.8201H12.4095L13.073 4.25774V4.42715H13.186V4.01772H13.073V4.10247L12.4801 3.72126C12.4801 3.72126 12.4801 3.5095 12.4801 3.32597C12.4801 3.14244 12.4519 3.0436 12.3389 2.9589C12.226 2.88831 12.0142 2.76127 12.0142 2.76127V2.62009L12.226 2.54952L12.0142 2.45068V2.29537L12.1554 2.25302L12.0142 2.18244L11.9719 1.88599L11.9295 2.18244L11.7883 2.25302L11.9295 2.29537V2.45068L11.7178 2.54952L11.9295 2.62009V2.76127C11.9295 2.76127 11.7177 2.88831 11.6048 2.9589C11.4919 3.02949 11.4636 3.12832 11.4636 3.32597C11.4636 3.52362 11.4636 3.72126 11.4636 3.72126L10.8424 4.11656V4.00363H10.7295V4.41301H10.8424V4.27187L11.5342 3.80597H11.7742V4.18717H11.7883C11.6613 4.18717 11.5624 4.28596 11.5483 4.41301V4.51185H11.3789V4.73774H11.5483V4.92127H11.3789V5.16129H11.5483V5.34478H11.266V5.5848H11.4354V5.78243H11.266V6.03658H11.4354V6.2342H11.266V6.48831H11.4354V6.70011H11.266V6.96835H11.4354V7.1801H11.266V7.46243H11.4354V7.68832H11.266V7.97069H11.4354V8.19658H11.266V8.49303H11.4354L11.4213 8.80363H11.0542V8.59187H10.913V8.80363V9.1707H11.0542H11.1954V9.31184V10.0319H9.76951C8.62598 11.1895 6.36715 10.4836 6.36715 10.4836V10.8931L8.41421 11.3871V11.726H8.82363V12.0083H9.20479V12.2766H9.45892V12.4883H9.52951V13.0813H9.45892V13.293H9.52951V13.533H9.62832V13.646H8.92244V14.5072C7.45421 15.806 4.89893 14.973 4.89893 14.973V15.4954L7.48246 16.1166V16.526H8.01891V19.0954V20.3942H5.52008V21.6366H18.2683V20.3942H15.7695V19.0954V16.526H16.3483V16.1166H16.306L18.8895 15.4954V14.973H18.8754ZM8.88009 16.9071V20.3801H8.30126V19.0813V16.5118H8.88009V16.9071ZM12.833 19.7872H10.913V17.6695C10.913 17.133 11.3366 16.7095 11.873 16.7095C12.4095 16.7095 12.833 17.133 12.833 17.6695V19.7872ZM15.4307 19.0813V20.3801H14.8518V16.9071V16.5118H15.4307V19.0813Z" fill="white"/>
</g>
<defs>
<clipPath id="clip0">
<rect width="24" height="24" fill="white" transform="translate(0 0.855469)"/>
</clipPath>
</defs>
</svg>
