<svg width="24" height="25" viewBox="0 0 24 25" fill="none" xmlns="http://www.w3.org/2000/svg">
<g clip-path="url(#clip0)">
<path d="M12 24.8555C18.6274 24.8555 24 19.4829 24 12.8555C24 6.22805 18.6274 0.855469 12 0.855469C5.37258 0.855469 0 6.22805 0 12.8555C0 19.4829 5.37258 24.8555 12 24.8555Z" fill="#317A4E"/>
<path d="M15.5574 20.1261C16.4853 20.1261 17.2374 19.374 17.2374 18.4461C17.2374 17.5183 16.4853 16.7661 15.5574 16.7661C14.6296 16.7661 13.8774 17.5183 13.8774 18.4461C13.8774 19.374 14.6296 20.1261 15.5574 20.1261Z" fill="white"/>
<path d="M15.5152 2.57739L7.03052 12.6009" stroke="white" stroke-width="0.15" stroke-miterlimit="10"/>
<path d="M16.2774 3.22656L7.79272 13.2501" stroke="white" stroke-width="0.15" stroke-miterlimit="10"/>
<path d="M17.0399 3.86206L8.55518 13.8997" stroke="white" stroke-width="0.15" stroke-miterlimit="10"/>
<path d="M17.8023 4.51147L9.31763 14.535" stroke="white" stroke-width="0.15" stroke-miterlimit="10"/>
<path d="M18.565 5.15942L10.0803 15.1829" stroke="white" stroke-width="0.15" stroke-miterlimit="10"/>
<path d="M19.327 5.79565L10.8281 15.8192" stroke="white" stroke-width="0.15" stroke-miterlimit="10"/>
<path d="M20.0889 6.44458L11.5901 16.4681" stroke="white" stroke-width="0.15" stroke-miterlimit="10"/>
<path d="M20.4986 11.4847L10.4751 3" stroke="white" stroke-width="0.15" stroke-miterlimit="10"/>
<path d="M19.8633 12.2469L9.82568 3.76221" stroke="white" stroke-width="0.15" stroke-miterlimit="10"/>
<path d="M19.2135 13.0082L9.18994 4.52344" stroke="white" stroke-width="0.15" stroke-miterlimit="10"/>
<path d="M18.5646 13.7715L8.54102 5.27271" stroke="white" stroke-width="0.15" stroke-miterlimit="10"/>
<path d="M17.9292 14.534L7.8916 6.03516" stroke="white" stroke-width="0.15" stroke-miterlimit="10"/>
<path d="M17.2799 15.2821L7.25635 6.79736" stroke="white" stroke-width="0.15" stroke-miterlimit="10"/>
<path d="M16.6305 16.0433L6.60693 7.55859" stroke="white" stroke-width="0.15" stroke-miterlimit="10"/>
<path d="M21.7833 9.96128L11.7598 1.47656" stroke="white" stroke-width="0.15" stroke-miterlimit="10"/>
<path d="M21.148 10.7237L11.1104 2.23901" stroke="white" stroke-width="0.15" stroke-miterlimit="10"/>
<path d="M17.407 4.9061C15.487 3.28257 12.3529 3.83318 10.4046 6.12024C9.44463 7.24965 8.96462 8.60495 8.93638 9.87554C8.90815 10.2991 8.87993 10.7367 8.86581 11.1603C8.79522 12.9532 8.71049 14.6332 7.55284 16.1014C7.38343 16.0873 7.1999 16.1296 7.07284 16.2849L4.57404 19.2355C4.37639 19.4614 4.40461 19.8002 4.64461 19.9979C4.87049 20.1955 5.20932 20.1673 5.40697 19.9273L7.90578 16.9767C8.01872 16.8355 8.04697 16.652 8.00461 16.4967C9.24697 15.1132 10.9129 14.7461 12.6635 14.3791C13.0729 14.2944 13.5105 14.1955 13.9199 14.0967C15.1764 13.8708 16.4188 13.165 17.3788 12.0355C19.2988 9.72024 19.327 6.52963 17.407 4.9061ZM8.82346 15.0567C9.21876 14.0685 9.34582 13.0379 9.40229 11.9932C9.64229 12.4591 9.95287 12.8826 10.3623 13.2214C10.7717 13.5744 11.2375 13.8144 11.7458 13.9696C10.7293 14.2097 9.72699 14.492 8.82346 15.0567ZM16.927 11.6402C15.1905 13.6873 12.4234 14.2097 10.7434 12.7838C9.06344 11.372 9.11994 8.54845 10.8564 6.48727C12.5929 4.42609 15.3599 3.91786 17.0399 5.34374C18.7058 6.76963 18.6634 9.59319 16.927 11.6402Z" fill="white"/>
</g>
<defs>
<clipPath id="clip0">
<rect width="24" height="24" fill="white" transform="translate(0 0.855469)"/>
</clipPath>
</defs>
</svg>
