<svg width="24" height="24" viewBox="0 0 24 24" fill="none" xmlns="http://www.w3.org/2000/svg">
<g clip-path="url(#clip0)">
<circle cx="12.0007" cy="12" r="12" fill="#317669"/>
<path d="M14.2541 11.9567C14.2541 13.2015 13.2451 14.2103 12.0007 14.2103C10.7562 14.2103 9.74728 13.2015 9.74728 11.9567C9.74728 10.7121 10.7562 9.70334 12.0007 9.70334C13.2451 9.70334 14.2541 10.7121 14.2541 11.9567ZM16.2618 11.3767C16.1004 11.7181 15.9225 12.0529 15.7308 12.3808C15.7864 12.4795 15.842 12.5787 15.8985 12.6838C16.1847 13.2278 16.4847 13.8572 16.7155 14.5872C16.8278 14.9527 16.9224 15.3438 16.9622 15.7637C16.9975 16.1804 16.9957 16.6397 16.7967 17.0914C16.6966 17.3142 16.536 17.5279 16.3225 17.684C16.2989 17.7009 16.281 17.7168 16.2526 17.7347L16.1596 17.7885C16.0956 17.8279 16.0364 17.8485 15.9745 17.8752C15.8508 17.9243 15.7224 17.9549 15.5929 17.9763C15.0717 18.0508 14.5639 17.9412 14.0903 17.7792C13.3397 17.5116 12.6473 17.1023 12.0007 16.6209C11.3541 17.1024 10.6618 17.5116 9.91111 17.7792C9.43731 17.9414 8.9297 18.0508 8.40847 17.9763C8.27905 17.9548 8.15044 17.9243 8.02684 17.8752C7.96501 17.8483 7.90572 17.8277 7.84172 17.7885L7.74877 17.7347C7.72014 17.7168 7.70258 17.7009 7.67893 17.684C7.46532 17.5278 7.30486 17.3142 7.20474 17.0914C7.00562 16.6396 7.00368 16.1804 7.03919 15.7637C7.07912 15.3439 7.17362 14.9527 7.28585 14.5872C7.5166 13.8572 7.81655 13.2278 8.10278 12.6838C8.15931 12.5787 8.21486 12.4795 8.27063 12.3808C8.07891 12.0529 7.90096 11.7181 7.73954 11.3767C7.30476 10.452 6.97382 9.48114 6.88411 8.47713C6.84477 7.97759 6.86655 7.45849 7.06923 6.97172C7.17122 6.73113 7.32898 6.50419 7.5358 6.33778L7.57446 6.30667L7.59376 6.29102L7.60341 6.28338C7.6043 6.28235 7.63092 6.26379 7.62389 6.26919L7.69447 6.22567C7.73477 6.19795 7.80432 6.16504 7.86599 6.13596C7.99033 6.08019 8.10764 6.04976 8.22967 6.02636C8.71754 5.94679 9.1628 6.05983 9.55757 6.19908C9.95401 6.34286 10.3091 6.5324 10.6348 6.7327C11.1593 7.06087 11.6077 7.41639 12.0009 7.75898C12.3942 7.41639 12.8425 7.0607 13.3669 6.7327C13.6926 6.53226 14.0478 6.34286 14.4442 6.19908C14.839 6.05986 15.2843 5.94704 15.7721 6.02636C15.8941 6.04976 16.0115 6.08017 16.1357 6.13596C16.1975 6.16506 16.2671 6.19795 16.3073 6.22567L16.3778 6.26919C16.3708 6.26379 16.3974 6.28235 16.3985 6.28338L16.4081 6.29102L16.4273 6.30667L16.4659 6.33778C16.6729 6.50421 16.8305 6.73098 16.9325 6.97172C17.1353 7.45846 17.1569 7.97759 17.1176 8.47713C17.0275 9.48114 16.6966 10.452 16.2618 11.3767ZM11.3512 16.101C10.6228 15.4752 9.95978 14.7618 9.36381 13.9987C8.97962 13.4989 8.62284 12.977 8.30327 12.4362C8.25698 12.5274 8.21078 12.618 8.16459 12.7148C7.9041 13.2668 7.6418 13.9105 7.47596 14.6386C7.39415 15.0016 7.33323 15.3857 7.3265 15.7786C7.32591 16.1683 7.37795 16.5797 7.56493 16.9099C7.74939 17.2416 8.08016 17.4364 8.46636 17.4535C8.85425 17.4757 9.27319 17.3474 9.67484 17.1738C10.2609 16.9121 10.8189 16.5332 11.3512 16.101ZM15.6982 12.4361C15.3786 12.977 15.0218 13.4989 14.6376 13.9987C14.0416 14.7617 13.3785 15.4754 12.6501 16.101C13.1825 16.5332 13.7405 16.9121 14.3266 17.1737C14.7282 17.3473 15.1469 17.4757 15.535 17.4533C15.9211 17.4364 16.252 17.2414 16.4364 16.9097C16.6235 16.5797 16.6755 16.168 16.6749 15.7785C16.6682 15.3855 16.6073 15.0015 16.5254 14.6384C16.3596 13.9103 16.0973 13.2668 15.8368 12.7146C15.7906 12.6178 15.7442 12.5272 15.6982 12.4361ZM14.2744 10.1963C14.2744 10.1963 14.3508 10.2961 14.4941 10.4835C14.6339 10.6734 14.8382 10.9527 15.0822 11.3196C15.1233 11.3808 15.1665 11.4484 15.2093 11.5145C15.3096 11.3427 15.4088 11.1703 15.5021 10.9961C15.9444 10.1501 16.3196 9.27198 16.4672 8.39899C16.5342 7.96689 16.5544 7.52973 16.4357 7.16023C16.3772 6.97698 16.2845 6.81539 16.1565 6.69002L16.1325 6.66624L16.1208 6.65428L16.1148 6.64829C16.1107 6.64463 16.1311 6.65981 16.1184 6.65048L16.052 6.60075C16.0041 6.5615 15.973 6.54908 15.9379 6.52717C15.8656 6.48552 15.7743 6.45075 15.6859 6.42533C15.32 6.32678 14.9089 6.37941 14.5321 6.47685C14.1531 6.58174 13.7967 6.73653 13.4656 6.90632C12.9345 7.18059 12.4723 7.50083 12.0679 7.81792C12.1377 7.87946 12.2065 7.94076 12.273 8.00105C12.7245 8.41878 13.0959 8.80451 13.3891 9.13327C13.6831 9.46144 13.9027 9.72895 14.0513 9.91198C14.1966 10.0972 14.2744 10.1963 14.2744 10.1963C14.2744 10.1963 14.1958 10.098 14.0486 9.91358C13.897 9.73323 13.6792 9.46385 13.377 9.14383C13.076 8.82301 12.6957 8.44631 12.2265 8.05355C12.1538 7.99292 12.0778 7.9317 12.0007 7.8703C11.9235 7.93155 11.8476 7.99292 11.7746 8.05341C11.3056 8.44616 10.9253 8.82286 10.6242 9.14368C10.322 9.46385 10.1042 9.73323 9.95259 9.91343C9.80544 10.0978 9.72687 10.196 9.72687 10.196C9.72687 10.196 9.80455 10.0972 9.95013 9.91157C10.0989 9.72861 10.3183 9.46107 10.6123 9.13293C10.9055 8.80432 11.277 8.41844 11.7284 8.0007C11.7948 7.94022 11.8636 7.87914 11.9334 7.8176C11.529 7.50051 11.0669 7.18027 10.5359 6.90603C10.2048 6.73638 9.84831 6.58145 9.46938 6.47656C9.09247 6.37914 8.68139 6.32666 8.31555 6.42504C8.22716 6.45045 8.13556 6.48523 8.06351 6.52685C8.02844 6.54891 7.99732 6.56133 7.94941 6.60036L7.8831 6.65013C7.87038 6.65964 7.89079 6.64431 7.88662 6.64797L7.8807 6.65394L7.86889 6.6659L7.84497 6.6896C7.71697 6.81507 7.62416 6.97658 7.56569 7.15989C7.44703 7.52941 7.46721 7.96657 7.53413 8.39867C7.68173 9.27166 8.05693 10.1498 8.49924 10.9958C8.59254 11.17 8.69178 11.3424 8.79202 11.5142C8.8348 11.4479 8.87825 11.3805 8.91914 11.3193C9.16324 10.9524 9.36752 10.673 9.50728 10.4831C9.6506 10.2958 9.72702 10.1958 9.72702 10.1958C9.72702 10.1958 9.65158 10.2965 9.5099 10.4851C9.37299 10.6772 9.1671 10.9552 8.93247 11.328C8.89099 11.3934 8.84755 11.4651 8.80433 11.5361C9.18758 12.1909 9.61789 12.829 10.09 13.4361C10.6725 14.1927 11.316 14.9 12.0007 15.538C12.6854 14.9 13.3289 14.1927 13.9115 13.4362C14.3834 12.8291 14.8138 12.191 15.1971 11.5363C15.1539 11.4651 15.1105 11.3934 15.0689 11.3281C14.8345 10.9555 14.6284 10.6773 14.4916 10.4853C14.3498 10.2969 14.2744 10.1963 14.2744 10.1963Z" fill="white"/>
</g>
<defs>
<clipPath id="clip0">
<rect width="24" height="24" fill="white" transform="translate(0.000732422)"/>
</clipPath>
</defs>
</svg>
