<svg fill="none" height="39" viewBox="0 0 299 39" width="299" xmlns="http://www.w3.org/2000/svg" xmlns:xlink="http://www.w3.org/1999/xlink"><clipPath id="a"><path d="m0 0h32v32h-32z"/></clipPath><g fill="#fff"><path d="m68.6899 19.0871h-.5176c-2.52 5.9625-4.0949 8.1001-9.1124 8.1001h-3.4201v-11.5425h1.44c2.7675 0 4.365 1.215 5.2875 4.77h.45v-10.1025h-.45c-.9225 3.5325-2.52 4.7024-5.2875 4.7024h-1.44v-10.64241h3.5775c4.2525 0 5.58 2.25004 7.9875 7.62751h.5175v-8.23505h-20.6325v.45003c2.8575.1125 3.5775.69753 3.5775 2.00253v19.19239c0 1.305-.72 1.8675-3.5775 1.9575v.4951h21.5326z"/><path d="m78.0931 27.4122c-1.395 0-1.665-.315-1.665-1.2825v-10.125c.9-1.395 1.665-2.25 2.9025-2.25 1.7325 0 2.4975 1.215 2.4975 3.285v9.135c0 .9675-.36 1.2375-1.7775 1.2825v.405h8.19v-.45c-1.44 0-1.8225-.315-1.8225-1.2825v-9.5851c.018-.1795.018-.3604 0-.5399.3175-.578.7583-1.0791 1.2909-1.468.5327-.3888 1.1444-.6558 1.7916-.782 1.7325 0 2.385 1.215 2.385 3.285v9.135c0 .9675-.315 1.2375-1.6875 1.2825v.405h8.6625v-.45c-2.0025 0-2.385-.315-2.385-1.2825v-9.5175c0-3.24-1.44-4.9726-4.3425-4.9726-1.1796.0909-2.3202.4632-3.3263 1.0856-1.0061.6225-1.8484 1.477-2.4562 2.492-.0368-.5128-.1754-1.0132-.4077-1.4719-.2324-.4587-.5538-.8665-.9455-1.1996-.3917-.333-.8459-.5847-1.336-.7403s-1.0062-.2119-1.5183-.1658c-1.1775.0648-2.3199.4243-3.3223 1.0454-1.0025.6211-1.833 1.4841-2.4152 2.5097v-3.5325l-6.9525.315v.4275c2.0025 0 2.43.675 2.43 1.71v11.9025c0 .9675-.4275 1.2375-2.43 1.2825v.405h8.685z"/><path d="m104.172 14.2496c.76-.7653 1.78-1.2154 2.858-1.26 2.385 0 3.735 2.7225 3.735 6.4575 0 4.6575-1.035 7.9424-3.443 7.9424-.704-.0431-1.38-.2951-1.941-.7239-.561-.4287-.982-1.0149-1.209-1.6836zm-4.4997-8.79759v19.70999 2.6325h.6297l2.25-1.2375c1.71 1.0272 3.676 1.5498 5.67 1.5075 4.703 0 7.628-3.7574 7.628-8.7749 0-4.275-2.25-7.74-6.323-7.74-.961-.0061-1.914.1798-2.803.5468-.888.3671-1.695.9079-2.372 1.5907v-10.66513l-7.1997.33756v.40498c2.25 0 2.6101.60752 2.6101 1.71002"/><path d="m126.11 24.5321c-.262.431-.623.7931-1.054 1.0554s-.918.4174-1.421.4522c-1.575 0-2.385-1.0575-2.385-2.7 0-2.475.922-3.3751 4.86-4.0051zm-7.403-4.2299c-.663.343-1.222.8582-1.618 1.4916s-.614 1.3616-.632 2.1084c.02.5887.163 1.1667.42 1.697.256.5302.621 1.0012 1.07 1.3824.449.3813.973.6646 1.538.8317s1.158.2144 1.742.1389c.999-.0458 1.975-.3091 2.861-.7716.886-.4624 1.661-1.113 2.269-1.906h.135c.014.4108.116.8139.297 1.1826.182.3687.439.6946.756.9562s.686.453 1.083.5614c.396.1084.811.1314 1.217.0674h3.262v-.3375c-2.25 0-2.25-1.2825-2.25-2.97v-7.7175c0-3.8025-2.25-5.3776-6.435-5.3776-4.725 0-7.042 1.3726-7.042 3.4426 0 .5968.237 1.169.659 1.591.422.4219.994.659 1.591.659.306.0184.614-.0262.902-.131.289-.1048.553-.2675.777-.4783.223-.2108.401-.4652.523-.7474.121-.2821.183-.5861.183-.8933-.01-.3789-.097-.752-.255-1.0963-.159-.3443-.386-.6526-.668-.9062.728-.535 1.618-.805 2.52-.7651 1.823 0 2.565 1.1026 2.565 3.5551v2.7899c-1.147.4275-5.085.315-7.582 1.665"/><path d="m134.657 26.7825c1.587.7288 3.296 1.1562 5.04 1.2601 3.937 0 6.435-2.385 6.435-5.49s-1.935-4.1401-5.648-5.0401c-2.25-.63-3.825-1.3049-3.825-2.7224-.026-.3476.022-.6969.143-1.0241.12-.3272.309-.6247.555-.8723.245-.2476.541-.4395.867-.5627.326-.1231.675-.1746 1.023-.151 2.25 0 3.42 1.485 5.422 4.68h.495v-5.3325h-.405l-.967 1.1701c-1.301-.7903-2.798-1.196-4.32-1.1701-3.825 0-6.3 2.115-6.3 5.2875 0 2.5875 1.53 3.7126 5.152 4.7476 3.623 1.035 4.5 1.755 4.5 3.3525.007.3522-.063.7016-.204 1.0244-.141.3229-.35.6117-.613.8465-.262.2349-.573.4104-.909.5146-.337.1042-.692.1347-1.041.0894-2.453 0-4.14-1.6199-6.39-5.2874h-.473v5.94h.405z"/><path d="m171.306 12.2249c2.52.3375 3.06 1.17 2.25 3.5325l-3.015 7.5825-3.96-9.2475c-.517-1.215-.18-1.6875 1.8-1.8675v-.4275h-9.562l-.968.9c-1.299-.7937-2.798-1.1997-4.32-1.17-3.825 0-6.277 2.1149-6.277 5.2874 0 2.5875 1.507 3.6901 5.152 4.7476s4.5 1.755 4.5 3.3525c.007.3523-.063.7016-.204 1.0245s-.35.6116-.613.8465c-.262.2349-.573.4103-.909.5146-.337.1042-.692.1347-1.041.0894-2.453 0-4.14-1.62-6.39-5.2875h-.473v5.9401h.338l1.08-1.2602c1.587.7289 3.296 1.1563 5.04 1.2602 3.937 0 6.435-2.385 6.435-5.49 0-3.1051-1.935-4.1402-5.648-5.0402-2.25-.63-3.825-1.3274-3.825-2.7449-.023-.3458.028-.6926.15-1.0171.122-.3244.312-.6191.557-.8642.245-.245.539-.4349.864-.5567.324-.1218.671-.1728 1.017-.1496 2.25 0 3.42 1.4851 5.422 4.6801h.495v-4.5c1.395.27 1.89.6975 2.588 2.25l6.57 13.9275-.203.4949c-1.462 3.735-2.835 4.8601-4.5 5.0401.274-.2561.492-.5665.639-.9113.147-.3447.221-.7163.216-1.0912 0-.5967-.237-1.169-.659-1.591-.422-.4219-.994-.659-1.591-.659-.596 0-1.169.2371-1.591.659-.422.422-.659.9943-.659 1.591 0 1.62 1.17 2.655 3.173 2.655 2.002 0 3.802-1.1925 5.512-5.31l6.03-14.5125c.218-.7067.64-1.3335 1.212-1.8018.572-.4682 1.27-.7572 2.006-.8307v-.4275h-6.75z"/><path d="m192.237 37.9875c-4.05 0-5.962-1.2826-5.962-3.7351.022-.6254.23-1.2298.599-1.7353.37-.5054.882-.8883 1.471-1.0995h5.107c3.555 0 4.68.9899 4.68 2.4749 0 2.52-2.475 4.095-5.895 4.095zm-.562-25.3575c2.25 0 3.082 2.025 3.082 5.4675 0 3.825-.63 5.49-2.722 5.49-2.093 0-3.083-1.665-3.083-5.49s.608-5.4675 2.723-5.4675zm2.925 14.5799h-4.005c-2.723 0-3.555-.4949-3.555-1.2824s.63-1.3725 2.25-1.89c.855.2009 1.731.2991 2.61.2925 4.5 0 8.055-2.4075 8.055-6.3-.009-1.131-.363-2.2325-1.014-3.1572s-1.569-1.6286-2.631-2.0177c.489-.9231 1.285-1.647 2.25-2.0476-.003.5632.207 1.1069.586 1.5235s.9.6758 1.461.7265c.258.0099.515-.0343.754-.1298.24-.0955.457-.24.637-.4245.18-.1844.32-.4046.41-.6463.089-.2417.128-.4995.112-.7569.001-.3113-.063-.6193-.187-.9047-.124-.28546-.306-.54196-.535-.75343-.228-.21146-.498-.37329-.792-.47516s-.606-.14163-.916-.11673c-1.031.10178-2.008.5066-2.809 1.16332-.801.6567-1.39 1.5359-1.691 2.5267-1.194-.4471-2.461-.6685-3.735-.6526-4.5 0-8.1 2.4076-8.1 6.2551-.001 1.2875.431 2.5379 1.227 3.55s1.909 1.727 3.16 2.03c-2.812.7425-4.252 2.385-4.252 3.7125s.922 3.015 3.352 3.78c-3.127.45-4.5 1.6875-4.5 3.3975 0 2.25 3.488 3.8925 8.46 3.8925 6.413 0 10.328-3.1275 10.328-6.615s-2.25-4.8375-6.93-4.8375"/><path d="m210.822 24.7132c-.262.4441-.628.8176-1.068 1.0882-.439.2705-.937.4298-1.452.4643-1.575 0-2.43-1.08-2.43-2.745 0-2.52.945-3.4425 4.95-4.0725zm18-13.1176c-1.051.0841-2.058.4562-2.911 1.0754-.854.6192-1.52 1.4617-1.926 2.4348v-3.4426l-7.065.315v.4275c2.047 0 2.452.6975 2.452 1.755v12.0599c0 .855-.45 1.2825-1.71 1.2825-.321-.0113-.636-.0913-.923-.2345-.288-.1432-.541-.3463-.744-.5958-.202-.2494-.349-.5392-.43-.85-.081-.3109-.095-.6356-.04-.9521v-7.83c0-3.87-2.25-5.49-6.525-5.49-4.815 0-7.178 1.4175-7.178 3.51-.016.3165.035.6329.149.9285s.29.5637.515.7868c.225.223.495.396.791.5075.297.1116.614.1591.93.1397.322.0265.646-.0166.95-.1265s.58-.2839.811-.5102c.23-.2263.41-.4995.525-.8012.116-.3016.165-.6247.144-.9471-.013-.3871-.103-.7676-.265-1.1192-.162-.3517-.393-.6673-.68-.9283.75-.5259 1.65-.7944 2.565-.765 1.845 0 2.588 1.125 2.588 3.6225v2.835c-1.148.4275-5.153.315-7.673 1.6875-.67.3466-1.233.8688-1.629 1.5109-.397.642-.611 1.3796-.621 2.1341.02.5997.166 1.1885.427 1.7287.261.5401.633 1.0196 1.091 1.4075.457.3878.991.6755 1.567.8445s1.181.2157 1.775.1368c1.007-.0465 1.992-.3123 2.886-.7787.894-.4663 1.675-1.122 2.289-1.9213h.158c.27 1.7775 1.057 2.52 3.262 2.52h12.78v-.4275c-2.565 0-3.127-.3151-3.127-1.3051v-10.4399c.286-.6053.7-1.1418 1.212-1.5728.513-.431 1.112-.7465 1.758-.9248-.142.4517-.218.9217-.225 1.3951-.001.3399.068.6762.204.9877.136.3116.335.5916.584.8222.25.2306.545.4068.866.5175.321.1106.662.1531 1.001.1251.346.0011.688-.0696 1.005-.2075.317-.138.602-.3403.836-.5941.235-.2538.415-.5535.528-.8803s.156-.6736.128-1.0182c.016-.4049-.056-.8083-.211-1.1828-.155-.3744-.389-.7109-.686-.9865-.297-.2757-.65-.4839-1.035-.6105-.385-.1265-.793-.1683-1.195-.1226"/><path d="m243.426 25.522c-.322.3433-.713.615-1.147.7972s-.902.2709-1.373.2603c-2.745 0-4.162-3.0825-4.162-6.75 0-4.5 1.372-7.6275 3.622-7.6275.613-.006 1.216.1462 1.752.4418s.987.7248 1.308 1.2457zm4.658.5625v-20.81253l-7.29.33756v.4275c2.25 0 2.632.60753 2.632 1.71003v4.50004c-1.088-.458-2.261-.6804-3.442-.6526-1.119-.0121-2.227.2078-3.257.6454-1.029.4377-1.956 1.0837-2.724 1.8975-.767.8138-1.357 1.7777-1.734 2.8309-.376 1.0532-.53 2.173-.453 3.2888 0 4.7025 2.588 8.0999 7.02 8.0999.895-.0045 1.778-.2088 2.584-.5981s1.514-.9536 2.074-1.6519v2.0251l7.02-.135v-.3151c-2.003 0-2.43-.6749-2.43-1.6199"/><path d="m257.695 12.1801c2.25 0 3.083 2.4976 2.678 6.5026h-5.76c.135-4.1175 1.125-6.5026 3.082-6.5026zm7.11 11.7676c-.487.8583-1.19 1.575-2.038 2.0799s-1.813.7806-2.799.8001c-3.488 0-5.31-2.52-5.31-6.75v-.675h10.575c.161-1.0123.089-2.0479-.21-3.0283s-.817-1.8798-1.515-2.6301c-.699-.7503-1.559-1.3318-2.515-1.7003-.956-.3684-1.984-.5142-3.005-.4264-1.121-.0236-2.235.1851-3.271.6128s-1.973 1.0654-2.75 1.8728c-.778.8073-1.38 1.7669-1.769 2.8184-.389 1.0514-.556 2.1719-.49 3.291-.072 1.1048.095 2.2122.49 3.2464s1.009 1.9709 1.799 2.7463c.791.7753 1.739 1.371 2.781 1.7464 1.041.3753 2.151.5214 3.255.4285 1.453.04 2.89-.3209 4.152-1.0432s2.301-1.7782 3.003-3.0519z"/><path d="m291.617 17.6024c-2.408-.63-3.915-1.35-3.915-2.79-.023-.3517.029-.7043.153-1.0342s.317-.6296.566-.8788c.25-.2492.549-.4424.879-.5665s.683-.1763 1.034-.1531c2.25 0 3.488 1.5301 5.513 4.7476h.495v-5.4h-.428l-.967 1.1924c-1.319-.8082-2.841-1.222-4.388-1.1924-3.892 0-6.39 2.1375-6.39 5.355 0 2.6325 1.553 3.7575 5.22 4.815 3.668 1.0575 4.5 1.7999 4.5 3.3974.006.3589-.065.715-.208 1.0442-.143.3293-.355.6241-.622.8648-.266.2407-.58.4218-.922.5311-.342.1092-.704.1441-1.06.1024-2.475 0-4.208-1.6649-6.48-5.3774h-.495l.157 5.3325c-2.025 0-2.407-.315-2.407-1.2825v-9.6301c0-3.3075-1.44-5.0625-4.388-5.0625-1.231.0627-2.428.4256-3.487 1.057s-1.947 1.5122-2.588 2.5656v-3.5775l-7.065.315v.4275c2.048 0 2.453.6974 2.453 1.7549v12.0825c0 .9675-.405 1.26-2.453 1.2825v.4275h9v-.4275c-1.372 0-1.867-.315-1.867-1.2825v-10.3049c.301-.6171.755-1.1474 1.318-1.541.562-.3936 1.216-.6375 1.899-.709 1.8 0 2.498 1.1924 2.498 3.2849v9.3151c0 .9675-.518 1.26-1.935 1.2825v.4275h9.292l1.08-1.0126c1.618.7367 3.356 1.1713 5.13 1.2826 4.005 0 6.525-2.4075 6.525-5.58s-1.98-4.2075-5.715-5.1075"/></g><g clip-path="url(#a)"><circle cx="16" cy="16" fill="#fddf02" r="16"/><path d="m26 16.4951c0-.6676-.5368-1.21-1.1974-1.21s-1.1973.5424-1.1973 1.21.5367 1.2101 1.1973 1.2101c.6606-.0084 1.1974-.5425 1.1974-1.2101zm-1.4534-4.6064c0-.6592-.4293-1.1516-1.2386-1.1516-1.0322 0-1.7837.8595-2.2296 1.886-.5697-.2253-1.2386-.3255-1.8827-.3255-2.2956 0-4.0958 1.2267-4.0958 3.1961 0 1.0932.4872 1.8777 1.2717 2.3951-.9662 1.8525-1.9241 2.5702-4.0132 2.5702h-1.8002v-6.1419h.7597c1.4616 0 2.2956.6426 2.7828 2.5369h.2395v-5.3658h-.2395c-.4872 1.8776-1.3294 2.5035-2.7828 2.5035h-.7597v-5.66626h1.891c2.2378 0 2.9315 1.21001 4.2031 4.06396l.2725-.0167-.0577-4.3727h-10.8671v.24198c1.51115.05842 1.89098.36718 1.89098 1.06816v10.20586c0 .701-.37983.9931-1.89098 1.0515v.2587h9.2403c.1817.5674.6771 1.0764 1.6185 1.3769v.0584c-1.5772.2253-2.2956.8595-2.2956 1.7441 0 1.1933 1.7671 1.9861 4.2857 1.9944 3.2452 0 5.2353-1.6022 5.2353-3.388 0-1.7024-1.1973-2.4785-3.5095-2.4785h-2.0313c-.5203 0-.9084-.0334-1.1891-.1001-.4542-.1085-.6194-.3004-.6194-.5591 0-.3255.19-.5591.6441-.7761.1404-.0668.2973-.1252.4872-.1919.4294.1001.8506.1418 1.3212.1418 2.2544 0 4.0793-1.235 4.0793-3.2211 0-1.2684-.7514-2.153-1.8497-2.6454.2642-.4673.6854-.9012 1.1148-1.0431 0 .7177.5285 1.1683 1.0405 1.1683.6275-.0167.9743-.484.9743-1.0181zm-7.1428 10.3728h2.5764c1.8084 0 2.3699.509 2.3699 1.2684 0 1.2935-1.2551 2.0946-2.981 2.0946-2.0479 0-3.0223-.6593-3.0223-1.911 0-.6342.3468-1.0848 1.057-1.452zm3.2452-6.8095c0 1.9444-.322 2.8123-1.379 2.8123-1.0983 0-1.5607-.8596-1.5607-2.8123 0-1.9694.3055-2.8122 1.379-2.8122 1.1148.0083 1.5607 1.0514 1.5607 2.8122zm4.1536 5.3241c.6606 0 1.1974-.5424 1.1974-1.21s-.5368-1.21-1.1974-1.21-1.1973.5424-1.1973 1.21.545 1.21 1.1973 1.21z" fill="#161616"/></g></svg>