<svg width="24" height="24" viewBox="0 0 24 24" fill="none" xmlns="http://www.w3.org/2000/svg">
<g clip-path="url(#clip0)">
<circle cx="12.0007" cy="11.9995" r="12" fill="#E48226"/>
<path d="M11.8399 7.90713C11.8399 7.93054 11.8399 7.93053 11.8399 7.95394V9.80322C11.8399 10.6927 11.231 11.4418 10.4348 11.6759C10.5051 14.1104 10.6456 19.6816 10.6456 20.1732C10.6456 20.8286 10.3646 21.2968 9.91974 21.2968H9.84942C9.40452 21.2968 9.12353 20.8286 9.12353 20.1732C9.12353 19.6582 9.28751 14.1104 9.33434 11.6759C8.51478 11.4418 7.92944 10.6927 7.92944 9.80322V7.95394C7.92944 7.93053 7.92944 7.93054 7.92944 7.90713L8.23372 2.87429C8.25713 2.64021 8.60848 2.64021 8.63189 2.87429L8.91287 7.93054H9.38122L9.63876 2.87429C9.66218 2.64021 10.0134 2.64021 10.0368 2.87429L10.3178 7.93054H10.8564L11.1607 2.87429C11.1841 2.64021 11.5355 2.64021 11.5589 2.87429L11.8399 7.90713ZM15.8908 3.29565C15.8908 3.06156 15.6097 2.92112 15.4224 3.08498C14.9541 3.50633 14.2985 4.18518 14.041 4.7704C13.6195 5.70674 12.9873 8.89028 13.0341 10.2948C13.0809 11.6993 13.2214 12.1909 14.041 12.3782C14.2751 12.425 14.5093 12.4718 14.7434 12.5186C14.6732 15.2106 14.556 19.7284 14.556 20.1966C14.556 20.852 14.837 21.3202 15.2819 21.3202H15.3522C15.7972 21.3202 16.0781 20.852 16.0781 20.1966C16.0547 19.7284 15.8908 3.29565 15.8908 3.29565Z" fill="white"/>
</g>
<defs>
<clipPath id="clip0">
<rect width="24" height="24" fill="white" transform="translate(0.000732422 -0.000488281)"/>
</clipPath>
</defs>
</svg>
