<svg width="32" height="32" viewBox="0 0 32 32" fill="none" xmlns="http://www.w3.org/2000/svg">
<g clip-path="url(#clip0)">
<circle cx="16" cy="16" r="16" fill="#FDDF02"/>
<path d="M24.2963 25.9961H7.61012V21.3177H24.2963V25.9961ZM10.23 6.00391L5.55164 10.6823C5.55164 12.2105 6.79924 13.4581 8.32751 13.4581C9.4815 13.4581 10.4483 12.7719 10.8849 11.7739C11.3216 12.7719 12.2885 13.4581 13.4425 13.4581C14.5965 13.4581 15.5633 12.7719 16 11.7739C16.4366 12.7719 17.4035 13.4581 18.5575 13.4581C19.7115 13.4581 20.6783 12.7719 21.1149 11.7739C21.5516 12.7719 22.5185 13.4581 23.6725 13.4581C25.2007 13.4581 26.4483 12.2105 26.4483 10.6823L21.8323 6.06625L10.23 6.00391ZM10.1677 14.1754H8.6082V20.2573H10.1677V14.1754ZM23.2982 20.2573H21.7388V14.1754H23.2982V20.2573Z" fill="#1D1D1B"/>
</g>
<defs>
<clipPath id="clip0">
<rect width="32" height="32" fill="white"/>
</clipPath>
</defs>
</svg>
