<svg width="24" height="24" viewBox="0 0 24 24" fill="none" xmlns="http://www.w3.org/2000/svg">
<g clip-path="url(#clip0)">
<circle cx="12" cy="12" r="12" fill="#317A4E"/>
<path d="M19.8011 9.85953C19.6842 9.69579 19.4971 9.60222 19.31 9.60222H18.8421L12.1053 4.01158C11.9883 3.91801 11.8246 3.91801 11.7076 4.01158L4.94738 9.60222H4.69011C4.50297 9.60222 4.31579 9.69579 4.19883 9.85953C4.08187 10.0233 4.03511 10.2104 4.0819 10.3975L6.58484 19.5905C6.65501 19.8712 6.91235 20.0583 7.19305 20.0583H16.807C17.0877 20.0583 17.3451 19.8712 17.4153 19.5905L19.9182 10.3975C19.965 10.2104 19.9181 10.0233 19.8011 9.85953ZM11.8948 4.66655L17.8597 9.60222H5.9298L11.8948 4.66655ZM17.1813 15.6373H16.1053V13.9999H17.6491L17.1813 15.6373ZM16.3158 18.8186H16.0819V16.9005H16.8305L16.3158 18.8186ZM11.3567 10.8654V12.7367H9.15788V10.8654H11.3567ZM14.8421 10.8654V12.7367H12.62V10.8654H14.8421ZM14.8421 13.9999V15.6373H12.62V13.9999H14.8421ZM7.89477 12.7367H6.00004L5.48535 10.8654H7.89477V12.7367ZM6.35083 13.9999H7.91819V15.6373H6.79528L6.35083 13.9999ZM9.15788 13.9999H11.3567V15.6373H9.15788V13.9999ZM11.3567 16.9005V18.8186H9.15788V16.9005H11.3567ZM12.62 16.9005H14.8421V18.8186H12.62V16.9005ZM16.0819 12.7367V10.8654H18.4679L17.9532 12.7367H16.0819ZM7.1228 16.9005H7.89477V18.8186H7.6375L7.1228 16.9005Z" fill="white"/>
<path d="M12.1054 4.01158C11.9884 3.91801 11.8247 3.91801 11.7078 4.01158L4.94751 9.60222H5.92993L11.9182 4.66655L17.8832 9.60222H18.8657L12.1054 4.01158Z" fill="white"/>
</g>
<defs>
<clipPath id="clip0">
<rect width="24" height="24" fill="white"/>
</clipPath>
</defs>
</svg>
