<svg width="24" height="24" viewBox="0 0 24 24" fill="none" xmlns="http://www.w3.org/2000/svg">
<g clip-path="url(#clip0)">
<circle cx="12" cy="12" r="12" fill="#F57F20"/>
<path d="M20.4562 12.0117C20.4562 12.5965 20.1287 13.1111 19.6375 13.345C19.3568 13.4854 19.1696 13.7427 19.1696 14.0702V15.4269V16.1052C19.1696 16.6667 18.7018 17.1345 18.1404 17.1345H17.1346V17.2748C17.1346 17.5321 16.924 17.7427 16.6667 17.7427C16.4094 17.7427 16.1988 17.5321 16.1988 17.2748V17.1345H7.82454V17.2748C7.82454 17.5321 7.61413 17.7427 7.35682 17.7427C7.09951 17.7427 6.88895 17.5321 6.88895 17.2748V17.1345H5.85971C5.29831 17.1345 4.83047 16.6667 4.83047 16.1052V15.4269V14.0702C4.83047 13.7661 4.6433 13.4854 4.3626 13.345C3.87137 13.0877 3.54395 12.5965 3.54395 12.0117C3.54395 11.1696 4.22222 10.4912 5.06433 10.4912H5.39185C6.23395 10.4912 6.91237 11.1696 6.91237 12.0117V14.1637H17.1112V12.0117C17.1112 11.1696 17.7894 10.4912 18.6315 10.4912H18.9591C19.7778 10.4912 20.4562 11.1696 20.4562 12.0117ZM8.24558 10.7252C8.29236 10.9123 8.31582 11.0994 8.31582 11.2865V12.807H15.8246V11.2865C15.8246 11.0994 15.848 10.9123 15.8947 10.7252C16.0819 9.97663 16.6901 9.41522 17.4153 9.1813V7.77778C17.4153 6.93567 16.7368 6.25732 15.8947 6.25732H8.26899C7.42689 6.25732 6.74861 6.93567 6.74861 7.77778V9.1813C7.47375 9.41522 8.05844 9.97663 8.24558 10.7252Z" fill="black"/>
</g>
<defs>
<clipPath id="clip0">
<rect width="24" height="24" fill="white"/>
</clipPath>
</defs>
</svg>
