<svg width="24" height="24" viewBox="0 0 24 24" fill="none" xmlns="http://www.w3.org/2000/svg">
<g clip-path="url(#clip0)">
<circle cx="12" cy="12" r="12" fill="#CE3B27"/>
<path d="M18.2223 19.497H5.70769V15.9883H18.2223V19.497ZM7.67259 4.50293L4.16382 8.0117C4.16382 9.1579 5.09952 10.0936 6.24572 10.0936C7.11122 10.0936 7.83631 9.57893 8.16379 8.83039C8.49128 9.57893 9.21644 10.0936 10.0819 10.0936C10.9474 10.0936 11.6726 9.57893 12.0001 8.83039C12.3276 9.57893 13.0527 10.0936 13.9182 10.0936C14.7837 10.0936 15.5088 9.57893 15.8363 8.83039C16.1638 9.57893 16.8889 10.0936 17.7544 10.0936C18.9006 10.0936 19.8363 9.1579 19.8363 8.0117L16.3743 4.54969L7.67259 4.50293ZM7.62583 10.6316H6.45624V15.193H7.62583V10.6316ZM17.4738 15.193H16.3042V10.6316H17.4738V15.193Z" fill="white"/>
</g>
<defs>
<clipPath id="clip0">
<rect width="24" height="24" fill="white"/>
</clipPath>
</defs>
</svg>
