<svg width="24" height="24" viewBox="0 0 24 24" fill="none" xmlns="http://www.w3.org/2000/svg">
<circle cx="12" cy="12" r="12" fill="#AE8A51"/>
<path d="M19.9635 13.4945C19.4021 12.6524 18.8174 11.8103 18.139 11.0384C17.7647 11.1319 17.4372 11.2489 17.2267 11.3191C16.6185 11.553 15.5892 11.9741 15.2851 12.6524C15.098 13.0735 14.1155 12.1846 14.2793 11.8337C14.7003 10.8746 16.1274 10.2898 17.18 10.0559C16.6186 9.5413 15.9636 9.05007 15.215 8.62902C14.9811 8.69919 14.7004 8.79277 14.6302 8.81616C14.2793 8.95651 13.9753 9.14365 13.6712 9.33078C13.1332 9.68166 12.4313 10.1495 12.2208 10.8044C12.1038 11.2021 11.098 10.3834 11.215 9.98575C11.4723 9.14364 12.525 8.25475 13.6244 7.85708C13.5074 7.8103 13.4138 7.76352 13.2969 7.71674C12.7121 7.50621 12.1273 7.31907 11.5191 7.20212C10.2793 7.2489 8.68866 8.3951 8.3144 9.40095C8.33779 9.51791 8.3144 9.58807 8.17405 9.56468L8.10395 9.5413C7.79986 9.47112 7.1916 8.9799 7.30856 8.62902C7.54248 7.92726 8.17407 7.27228 8.92261 6.82784C7.00448 6.73427 5.41386 6.99159 4.71211 7.38925C3.54251 8.06762 2.37291 10.5471 5.71794 12.4653C7.61268 13.5647 12.7121 16.3951 16.1507 17.0501C19.5426 17.7518 21.4606 15.7635 19.9635 13.4945Z" fill="#FDE128"/>
</svg>
