<svg width="24" height="24" viewBox="0 0 24 24" fill="none" xmlns="http://www.w3.org/2000/svg">
<g clip-path="url(#clip0)">
<circle cx="12" cy="12" r="12" fill="#97CB64"/>
<path d="M20.0538 8.67857C19.726 7.88247 18.5553 7.57806 16.4714 8.44441C15.8158 8.70197 15.1602 9.05322 14.5748 9.42785C14.9494 8.84249 15.3007 8.18688 15.5583 7.53127C16.4246 5.47078 16.1436 4.29998 15.3241 3.94876C14.5046 3.59754 13.4978 4.25318 12.6314 6.31366C12.3739 6.96927 12.1397 7.6717 11.9992 8.35073C11.8587 7.6717 11.6246 6.96927 11.367 6.31366C10.5007 4.25318 9.49386 3.62096 8.67435 3.94876C7.87825 4.27657 7.57385 5.44737 8.44019 7.53127C8.69775 8.18688 9.04893 8.84249 9.42356 9.42785C8.8382 9.05322 8.18259 8.70197 7.52698 8.44441C5.46649 7.57806 4.29576 7.85905 3.94455 8.67857C3.61674 9.47466 4.24896 10.5049 6.30945 11.3712C6.96506 11.6288 7.66748 11.8629 8.34651 12.0034C7.66748 12.1439 6.96506 12.3781 6.30945 12.6356C4.24896 13.502 3.61674 14.5088 3.94455 15.3283C4.27235 16.1478 5.44308 16.4288 7.52698 15.5625C8.18259 15.3049 8.8382 14.9537 9.42356 14.579C9.04893 15.1644 8.69775 15.82 8.44019 16.4756C7.57385 18.5361 7.85484 19.7068 8.67435 20.058C9.47044 20.3858 10.5007 19.7771 11.367 17.6932C11.6246 17.0376 11.8587 16.3351 11.9992 15.6561C12.1397 16.3351 12.3739 17.0376 12.6314 17.6932C13.4978 19.7537 14.5046 20.3858 15.3241 20.058C16.1202 19.7302 16.4246 18.5595 15.5583 16.4756C15.3007 15.82 14.9494 15.1644 14.5748 14.579C15.1602 14.9537 15.8158 15.3049 16.4714 15.5625C18.5319 16.4288 19.7026 16.1478 20.0538 15.3283C20.3816 14.5322 19.7494 13.502 17.6889 12.6356C17.0333 12.3781 16.3309 12.1439 15.6519 12.0034C16.3309 11.8629 17.0333 11.6288 17.6889 11.3712C19.7728 10.5283 20.3816 9.49808 20.0538 8.67857Z" fill="white"/>
<path d="M12.0228 14.2296C11.8354 13.9486 11.6247 13.7379 11.3437 13.6442C11.0862 13.5272 10.7818 13.5272 10.4539 13.5974C10.5242 13.2696 10.5242 12.9652 10.4071 12.7077C10.2901 12.4501 10.0793 12.2159 9.82178 12.0286C10.1028 11.8413 10.3135 11.6305 10.4071 11.3496C10.5242 11.092 10.5242 10.7877 10.4539 10.4599C10.7818 10.5301 11.0862 10.5301 11.3437 10.413C11.6013 10.2959 11.8354 10.0852 12.0228 9.82764C12.2101 10.1086 12.4208 10.3193 12.7018 10.413C12.9828 10.5067 13.2637 10.5301 13.5915 10.4599C13.5213 10.7877 13.5213 11.092 13.6384 11.3496C13.7554 11.6071 13.9662 11.8413 14.2237 12.0286C13.9428 12.2159 13.732 12.4267 13.6384 12.7077C13.5213 12.9652 13.5213 13.2696 13.5915 13.5974C13.2637 13.5272 12.9594 13.5272 12.7018 13.6442C12.4442 13.7613 12.2101 13.9486 12.0228 14.2296Z" fill="#E6E75F"/>
</g>
<defs>
<clipPath id="clip0">
<rect width="24" height="24" fill="white"/>
</clipPath>
</defs>
</svg>
