<svg width="24" height="24" viewBox="0 0 24 24" fill="none" xmlns="http://www.w3.org/2000/svg">
<g clip-path="url(#clip0)">
<circle cx="12" cy="12" r="12" fill="white" stroke="#ABACAD" stroke-width="0.15" stroke-miterlimit="10"/>
<path d="M5.27038 18.3158C5.69143 17.1696 8.00725 15.9298 8.00725 15.9298C7.46924 14.4795 7.09498 10.807 9.10667 9.35669C11.1184 7.9064 17.8786 7.15786 18.7908 4.23389C18.7908 4.23389 19.3289 10.807 16.7792 13.7309C14.2295 16.6549 11.1184 15.5555 9.10667 16.4678C7.09498 17.3801 6.3698 19.7661 6.3698 19.7661C6.3698 19.7661 4.73237 19.7661 5.27038 18.3158Z" fill="#AFD46C"/>
<path d="M12.3347 11.8599C11.3522 12.3511 9.2937 15.0178 9.2937 15.0178L10.0188 15.392C10.9311 14.2926 12.9429 12.2809 14.3932 11.1815C15.8435 10.0821 17.8551 6.62012 17.8551 6.62012C16.7791 8.07041 13.3171 11.3686 12.3347 11.8599Z" fill="#6C8839"/>
</g>
<defs>
<clipPath id="clip0">
<rect width="24" height="24" fill="white"/>
</clipPath>
</defs>
</svg>
