<svg width="24" height="24" viewBox="0 0 24 24" fill="none" xmlns="http://www.w3.org/2000/svg">
<g clip-path="url(#clip0)">
<circle cx="11.9995" cy="12" r="12" fill="#FDDF02"/>
<path d="M21.0383 11.3482L16.4204 11.4666L14.743 8.64453L8.92127 8.74318V9.65089L10.283 9.61151L11.4078 11.5652L3.07982 11.7625C3.07982 11.7625 2.90221 11.7428 2.92194 11.9204L4.20471 15.2951C4.30338 15.3148 4.40203 15.3345 4.52044 15.3345C5.07301 15.3345 5.54666 15.0188 5.84268 14.5649C6.11897 15.0385 6.61233 15.3542 7.1649 15.3542C7.67799 15.3542 8.13189 15.078 8.42791 14.6636L8.40815 14.624C8.68444 15.0582 9.15808 15.3542 9.71064 15.3542C10.2632 15.3542 10.7566 15.0385 11.0329 14.5649V14.5845C11.3289 15.0187 11.8025 15.3148 12.3353 15.3148C12.9077 15.3148 13.401 14.9793 13.6773 14.5056C13.9536 14.9793 14.447 15.3148 15.0193 15.3148C15.5718 15.3148 16.0454 14.999 16.3415 14.5452C16.6178 15.0188 17.1111 15.3345 17.6637 15.3345C18.1768 15.3345 18.6307 15.0582 18.9267 14.6438L18.9464 14.624L21.0383 11.4468C21.0186 11.506 21.137 11.3284 21.0383 11.3482ZM12.9668 11.5455L11.7828 9.63126L14.4075 9.55225L15.5521 11.4666L12.9668 11.5455Z" fill="#1D1D1B"/>
</g>
<defs>
<clipPath id="clip0">
<rect width="24" height="24" fill="white" transform="translate(-0.000488281)"/>
</clipPath>
</defs>
</svg>
