<svg width="24" height="24" viewBox="0 0 24 24" fill="none" xmlns="http://www.w3.org/2000/svg">
<g clip-path="url(#clip0)">
<circle cx="11.9995" cy="12" r="12" fill="#FDDF02"/>
<path d="M17.625 11.0206C17.1531 8.41272 14.893 6.42578 12.1609 6.42578C9.42892 6.42578 7.14395 8.41272 6.67206 11.0206H5.08252V13.0323H6.67206C7.16879 15.6153 9.42891 17.5774 12.1361 17.5774C14.8681 17.5774 17.1282 15.6153 17.6001 13.0323H18.9165V11.0206H17.625ZM12.1609 15.665C10.4969 15.665 9.10604 14.5473 8.65899 13.0323H15.6629C15.191 14.5473 13.825 15.665 12.1609 15.665ZM8.63414 11.0206C9.05637 9.48069 10.472 8.33817 12.1361 8.33817C13.825 8.33817 15.2158 9.48069 15.638 11.0206H8.63414Z" fill="black"/>
</g>
<defs>
<clipPath id="clip0">
<rect width="24" height="24" fill="white" transform="translate(-0.000488281)"/>
</clipPath>
</defs>
</svg>
