<svg width="24" height="24" viewBox="0 0 24 24" fill="none" xmlns="http://www.w3.org/2000/svg">
<g clip-path="url(#clip0)">
<circle cx="11.9995" cy="12" r="12" fill="#FDDF02"/>
<path d="M12.5532 6.86404C13.2226 6.86404 13.7766 6.31004 13.7766 5.61757C13.7766 4.92509 13.2226 4.37109 12.5532 4.37109C11.8838 4.37109 11.3298 4.92509 11.3298 5.61757C11.3067 6.31004 11.8607 6.86404 12.5532 6.86404Z" fill="#1D1D1B"/>
<path d="M16.0389 11.456L14.377 10.3249L13.0844 7.73972C13.0844 7.71664 13.0613 7.7166 13.0613 7.69351L12.9689 7.50888H12.9459C12.7612 7.25498 12.4611 7.07031 12.138 7.07031C11.8379 7.07031 11.584 7.20879 11.3763 7.41654L8.60636 9.84023L8.09855 12.2639H8.12162C8.07545 12.3331 8.05237 12.4255 8.05237 12.5178C8.05237 12.8179 8.30629 13.0718 8.60636 13.0718C8.86027 13.0718 9.068 12.8871 9.13725 12.6332H9.16035L9.66817 10.2557L10.6145 9.56319L9.18342 15.9571L7.6369 18.5192C7.56766 18.6346 7.52148 18.75 7.52148 18.9116C7.52148 19.304 7.84463 19.6272 8.23703 19.6272C8.49094 19.6272 8.69868 19.4886 8.8141 19.304L8.8372 19.3271L10.5684 16.3956L11.1685 13.7642L13.3613 16.2109L13.9153 18.8655C13.9153 18.8886 13.9153 18.8885 13.9153 18.9116C13.9153 19.304 14.2385 19.6272 14.6309 19.6272C15.0233 19.6272 15.3464 19.304 15.3464 18.9116C15.3464 18.8885 15.3464 18.8886 15.3464 18.8655H15.3695L14.7463 15.8647L12.5535 13.0025L13.1767 10.0018L13.6845 11.2713L15.6234 12.4485C15.7157 12.4947 15.8081 12.5408 15.9235 12.5408C16.2236 12.5408 16.4775 12.287 16.4775 11.9869C16.4082 11.733 16.2467 11.5252 16.0389 11.456Z" fill="#1D1D1B"/>
</g>
<defs>
<clipPath id="clip0">
<rect width="24" height="24" fill="white" transform="translate(-0.000488281)"/>
</clipPath>
</defs>
</svg>
