<svg width="136" height="44" viewBox="0 0 136 44" fill="none" xmlns="http://www.w3.org/2000/svg">
<path d="M29.1223 19.1005V20.8738C27.7099 19.409 26.1145 18.6768 24.3359 18.6768C22.2747 18.6768 20.5589 19.4405 19.1884 20.9678C17.8178 22.4956 17.1328 24.4048 17.1328 26.6958C17.1328 29.0289 17.8178 30.9748 19.1884 32.5339C20.5695 34.0613 22.3168 34.8251 24.4299 34.8251C26.1039 34.8251 27.668 34.145 29.1223 32.7847V34.3859H32.6689V19.1005H29.1223ZM28.1336 30.3213C27.3278 31.2211 26.2715 31.6709 24.9637 31.6709C23.7395 31.6709 22.7247 31.2056 21.9191 30.274C21.1345 29.3535 20.742 28.1611 20.742 26.6958C20.742 25.3253 21.1447 24.175 21.9504 23.2434C22.7665 22.3228 23.781 21.8625 24.9949 21.8625C26.2818 21.8625 27.3278 22.3175 28.1336 23.2276C28.9392 24.1589 29.342 25.341 29.342 26.7743C29.342 28.2082 28.9392 29.3899 28.1336 30.3213Z" fill="white"/>
<path d="M38.8004 3.98145H35.2695V34.3877H38.8004V3.98145Z" fill="white"/>
<path d="M45.281 1.2998H41.75V34.3866H45.281V1.2998Z" fill="white"/>
<path d="M13.9415 20.9825C12.5707 19.4447 10.8552 18.6755 8.79422 18.6755C7.00512 18.6755 5.40425 19.408 3.99188 20.8725V8.19238H0.460938V34.3844H3.99188V32.7837C5.38333 34.1437 6.9633 34.8238 8.73121 34.8238C10.8237 34.8238 12.5549 34.06 13.9257 32.5322C15.3066 30.9946 15.9974 29.0488 15.9974 26.6948C15.9974 24.414 15.3121 22.5101 13.9415 20.9825ZM11.1637 30.304C10.3579 31.2144 9.34342 31.6693 8.11927 31.6693C6.82206 31.6693 5.77555 31.2141 4.98054 30.304C4.18553 29.4153 3.7879 28.2272 3.7879 26.7418C3.7879 25.2981 4.1907 24.1264 4.99629 23.2266C5.81248 22.3164 6.86905 21.8612 8.16626 21.8612C9.38009 21.8612 10.3894 22.3322 11.1952 23.2736C11.9899 24.1946 12.3879 25.3869 12.3879 26.8517C12.3879 28.2323 11.9797 29.3838 11.1637 30.304Z" fill="white"/>
<path d="M112.011 18.6768C111.31 18.6768 110.704 18.8077 110.19 19.069C109.689 19.3203 109.113 19.7858 108.465 20.4658V19.1005H104.934V34.3854H108.465V26.4606C108.465 23.5522 109.427 22.098 111.352 22.098C111.991 22.098 112.644 22.3386 113.314 22.8196L114.93 19.5872C113.915 18.9805 112.942 18.6768 112.011 18.6768Z" fill="white"/>
<path d="M125.884 28.7204C125.162 29.85 124.519 30.6247 123.953 31.0429C123.377 31.4615 122.651 31.6709 121.772 31.6709C120.642 31.6709 119.717 31.3045 118.994 30.5723C118.272 29.8296 117.864 28.8303 117.769 27.5751H128.724L128.74 26.743C128.74 24.222 128.09 22.2495 126.794 20.8269C125.486 19.3936 123.707 18.6768 121.458 18.6768C119.229 18.6768 117.44 19.4145 116.09 20.8895C114.751 22.3858 114.082 24.3421 114.082 26.7588C114.082 29.1971 114.772 31.153 116.153 32.6281C117.535 34.0929 119.365 34.8251 121.647 34.8251C122.441 34.8251 123.179 34.7412 123.858 34.5741C124.539 34.4065 125.172 34.1426 125.757 33.7815C126.343 33.4206 126.893 32.9603 127.405 32.4004C127.918 31.8406 128.404 31.1687 128.865 30.384L125.884 28.7204ZM118.508 23.5104C118.727 23.1651 118.991 22.8699 119.3 22.6239C119.608 22.378 119.951 22.1897 120.327 22.0589C120.705 21.9279 121.108 21.8625 121.536 21.8625C123.42 21.8625 124.606 22.8042 125.098 24.6873H118.005C118.121 24.2481 118.288 23.8556 118.508 23.5104Z" fill="white"/>
<path d="M55.6121 27.8888L50.9355 19.1006H46.8398L53.7132 31.5453L47.7501 42.703H51.7829L63.9609 19.1006H59.975L55.6121 27.8888Z" fill="white"/>
<path d="M134.277 31.1074C133.848 30.6785 133.336 30.4639 132.739 30.4639C132.144 30.4639 131.63 30.6785 131.202 31.1074C130.773 31.5365 130.559 32.0436 130.559 32.6295C130.559 33.2577 130.768 33.7805 131.187 34.1988C131.604 34.6171 132.122 34.8265 132.74 34.8265C133.347 34.8265 133.859 34.6171 134.278 34.1988C134.707 33.7699 134.921 33.252 134.921 32.6453C134.921 32.0488 134.707 31.5365 134.277 31.1074Z" fill="white"/>
<path d="M80.9433 18.6768C79.0496 18.6768 77.548 19.43 76.4393 20.9366C75.4349 19.43 74.0696 18.6768 72.3435 18.6768C71.5688 18.6768 70.9257 18.8077 70.4134 19.069C69.9322 19.3203 69.3514 19.8015 68.6716 20.5129V19.1005H65.1406V34.3854H68.6716V26.4919C68.6716 24.891 68.8989 23.7198 69.3541 22.9766C69.8091 22.2338 70.5334 21.8625 71.5276 21.8625C73.097 21.8625 73.8816 23.2225 73.8816 25.9423V34.3854H77.4283V26.4919C77.4283 24.8703 77.6502 23.6934 78.0951 22.9609C78.54 22.2289 79.2487 21.8625 80.2215 21.8625C81.0587 21.8625 81.6601 22.1711 82.0267 22.7885C82.3822 23.3949 82.5601 24.4308 82.5601 25.8954V34.3854H86.1068V24.9384C86.1063 20.7638 84.3854 18.6768 80.9433 18.6768Z" fill="white"/>
<path d="M101.358 21.015C99.7676 19.4563 97.8323 18.6768 95.5513 18.6768C93.281 18.6768 91.3558 19.4511 89.7763 20.9993C88.1963 22.5481 87.4062 24.426 87.4062 26.6333C87.4062 28.9771 88.1806 30.9231 89.7291 32.4711C91.277 34.0405 93.1973 34.8251 95.4883 34.8251C97.8005 34.8251 99.7513 34.0559 101.342 32.5183C102.921 30.9702 103.712 29.0498 103.712 26.7591C103.712 24.4887 102.927 22.5741 101.358 21.015ZM98.8625 30.337C98.0361 31.226 96.9322 31.6709 95.5513 31.6709C94.1805 31.6709 93.0769 31.2213 92.2401 30.321C91.424 29.4323 91.016 28.2236 91.016 26.6958C91.016 25.2734 91.4342 24.112 92.2714 23.2122C93.1084 22.3123 94.2017 21.8625 95.5513 21.8625C96.9219 21.8625 98.0255 22.3123 98.8625 23.2122C99.6887 24.1014 100.102 25.2889 100.102 26.7743C100.102 28.26 99.6887 29.4478 98.8625 30.337Z" fill="white"/>
</svg>
