<svg viewBox="0 0 123 38" fill="none" xmlns="http://www.w3.org/2000/svg">
<path d="M26.5479 16.3632V17.9753C25.2602 16.6437 23.8057 15.978 22.1842 15.978C20.3049 15.978 18.7407 16.6723 17.4912 18.0608C16.2417 19.4497 15.6172 21.1853 15.6172 23.2681C15.6172 25.3891 16.2417 27.158 17.4912 28.5754C18.7504 29.964 20.3433 30.6583 22.2699 30.6583C23.796 30.6583 25.222 30.0401 26.5479 28.8035V30.2591H29.7813V16.3632H26.5479ZM25.6465 26.564C24.9118 27.382 23.9488 27.7909 22.7565 27.7909C21.6404 27.7909 20.7153 27.3679 19.9808 26.521C19.2654 25.6842 18.9077 24.6002 18.9077 23.2681C18.9077 22.0222 19.2748 20.9764 20.0093 20.1295C20.7534 19.2926 21.6783 18.8741 22.7849 18.8741C23.9582 18.8741 24.9118 19.2878 25.6465 20.1152C26.3809 20.9618 26.7481 22.0365 26.7481 23.3395C26.7481 24.6429 26.3809 25.7173 25.6465 26.564Z" fill="currentColor"/>
<path d="M35.3714 2.61768H32.1523V30.2597H35.3714V2.61768Z" fill="currentColor"/>
<path d="M41.2817 0.180176H38.0625V30.2591H41.2817V0.180176Z" fill="currentColor"/>
<path d="M12.708 18.0741C11.4583 16.6762 9.89431 15.9769 8.01533 15.9769C6.38422 15.9769 4.92473 16.6428 3.63709 17.9742V6.44678H0.417969V30.2577H3.63709V28.8025C4.90566 30.0389 6.34609 30.6572 7.95788 30.6572C9.86559 30.6572 11.4439 29.9628 12.6937 28.5739C13.9526 27.1761 14.5824 25.4071 14.5824 23.2671C14.5824 21.1937 13.9576 19.4629 12.708 18.0741ZM10.1756 26.5482C9.44089 27.3759 8.51602 27.7894 7.39998 27.7894C6.21733 27.7894 5.26324 27.3756 4.53844 26.5482C3.81364 25.7403 3.45112 24.6602 3.45112 23.3099C3.45112 21.9974 3.81835 20.9323 4.55279 20.1142C5.29691 19.2868 6.26017 18.873 7.44282 18.873C8.54945 18.873 9.46961 19.3011 10.2043 20.157C10.9288 20.9942 11.2917 22.0782 11.2917 23.4098C11.2917 24.6649 10.9195 25.7117 10.1756 26.5482Z" fill="currentColor"/>
<path d="M102.116 15.978C101.477 15.978 100.924 16.0971 100.456 16.3346C99.9992 16.563 99.4746 16.9862 98.8835 17.6045V16.3632H95.6641V30.2586H98.8835V23.0542C98.8835 20.4102 99.7608 19.0883 101.516 19.0883C102.098 19.0883 102.694 19.307 103.304 19.7443L104.778 16.8057C103.852 16.2541 102.965 15.978 102.116 15.978Z" fill="currentColor"/>
<path d="M114.763 25.1086C114.105 26.1355 113.519 26.8398 113.003 27.22C112.478 27.6005 111.816 27.7909 111.015 27.7909C109.985 27.7909 109.141 27.4578 108.482 26.7921C107.824 26.117 107.452 25.2086 107.366 24.0674H117.352L117.367 23.311C117.367 21.0191 116.775 19.226 115.593 17.9327C114.401 16.6297 112.779 15.978 110.728 15.978C108.696 15.978 107.066 16.6487 105.835 17.9897C104.614 19.3499 104.004 21.1283 104.004 23.3253C104.004 25.5419 104.633 27.32 105.892 28.661C107.152 29.9927 108.82 30.6583 110.9 30.6583C111.624 30.6583 112.298 30.5821 112.917 30.4302C113.537 30.2778 114.115 30.0379 114.648 29.7097C115.183 29.3815 115.684 28.963 116.151 28.4541C116.618 27.9452 117.061 27.3344 117.481 26.621L114.763 25.1086ZM108.039 20.3723C108.239 20.0584 108.479 19.79 108.761 19.5663C109.042 19.3428 109.355 19.1716 109.698 19.0527C110.042 18.9337 110.409 18.8741 110.8 18.8741C112.517 18.8741 113.599 19.7303 114.047 21.4421H107.581C107.686 21.0429 107.839 20.686 108.039 20.3723Z" fill="currentColor"/>
<path d="M50.7007 24.3521L46.4371 16.3628H42.7031L48.9695 27.6762L43.533 37.8195H47.2097L58.3122 16.3628H54.6783L50.7007 24.3521Z" fill="currentColor"/>
<path d="M122.417 27.2774C122.027 26.8875 121.56 26.6924 121.016 26.6924C120.472 26.6924 120.004 26.8875 119.614 27.2774C119.223 27.6675 119.027 28.1285 119.027 28.6611C119.027 29.2322 119.218 29.7075 119.6 30.0878C119.981 30.4681 120.453 30.6584 121.016 30.6584C121.569 30.6584 122.036 30.4681 122.418 30.0878C122.809 29.6979 123.005 29.2271 123.005 28.6755C123.005 28.1332 122.809 27.6675 122.417 27.2774Z" fill="currentColor"/>
<path d="M73.7899 15.978C72.0635 15.978 70.6945 16.6628 69.6837 18.0324C68.768 16.6628 67.5232 15.978 65.9496 15.978C65.2433 15.978 64.657 16.0971 64.19 16.3346C63.7512 16.563 63.2218 17.0005 62.602 17.6472V16.3632H59.3828V30.2586H62.602V23.0827C62.602 21.6273 62.8092 20.5626 63.2242 19.887C63.639 19.2117 64.2994 18.8741 65.2057 18.8741C66.6365 18.8741 67.3519 20.1105 67.3519 22.5831V30.2586H70.5854V23.0827C70.5854 21.6085 70.7876 20.5386 71.1933 19.8727C71.5989 19.2072 72.245 18.8741 73.1319 18.8741C73.8951 18.8741 74.4434 19.1547 74.7776 19.7159C75.1018 20.2672 75.264 21.209 75.264 22.5404V30.2586H78.4975V21.6705C78.497 17.8754 76.9281 15.978 73.7899 15.978Z" fill="currentColor"/>
<path d="M92.4031 18.1037C90.9533 16.6867 89.1889 15.978 87.1093 15.978C85.0395 15.978 83.2844 16.682 81.8444 18.0894C80.4039 19.4974 79.6836 21.2046 79.6836 23.2113C79.6836 25.3419 80.3896 27.1111 81.8013 28.5183C83.2125 29.945 84.9632 30.6583 87.0519 30.6583C89.1599 30.6583 90.9384 29.959 92.3888 28.5613C93.8284 27.1538 94.549 25.4081 94.549 23.3256C94.549 21.2616 93.8336 19.5211 92.4031 18.1037ZM90.1281 26.5783C89.3747 27.3864 88.3683 27.7909 87.1093 27.7909C85.8596 27.7909 84.8535 27.3822 84.0906 26.5637C83.3465 25.7558 82.9746 24.657 82.9746 23.2681C82.9746 21.975 83.3559 20.9192 84.1191 20.1011C84.8822 19.2831 85.8789 18.8741 87.1093 18.8741C88.3589 18.8741 89.365 19.2831 90.1281 20.1011C90.8814 20.9095 91.2581 21.989 91.2581 23.3395C91.2583 24.6901 90.8814 25.7699 90.1281 26.5783Z" fill="currentColor"/>
</svg>
