<svg width="18" height="18" viewBox="0 0 18 18" fill="none" xmlns="http://www.w3.org/2000/svg">
<path d="M16.5 9.33203V11.832C16.5 13.6729 15.0076 15.1654 13.1667 15.1654H4.83333C2.99238 15.1654 1.5 13.6729 1.5 11.832V9.83203C1.5 9.55586 1.72386 9.33203 2 9.33203H16.5Z" stroke="black" stroke-width="1.25" stroke-linecap="round" stroke-linejoin="round"/>
<path d="M12.3359 15.168L13.1693 16.8346" stroke="black" stroke-width="1.25" stroke-linecap="round" stroke-linejoin="round"/>
<path d="M5.66927 15.168L4.83594 16.8346" stroke="black" stroke-width="1.25" stroke-linecap="round" stroke-linejoin="round"/>
<path d="M16.5 9.33333V4.33333C16.5 2.49238 15.0076 1 13.1667 1H9" stroke="black" stroke-width="1.25" stroke-linecap="round" stroke-linejoin="round"/>
<path d="M11.8352 5.16667H6.16853C5.89238 5.16667 5.67178 4.94308 5.70199 4.66858C5.8237 3.56282 6.38777 1 9.00184 1C11.6159 1 12.18 3.56282 12.3017 4.66858C12.3319 4.94307 12.1113 5.16667 11.8352 5.16667Z" stroke="black" stroke-width="1.25" stroke-linecap="round" stroke-linejoin="round"/>
</svg>
