<svg width="20" height="18" viewBox="0 0 20 18" fill="none" xmlns="http://www.w3.org/2000/svg">
<path d="M2.25391 4.5H6.4211C7.24952 4.5 7.9211 5.18282 7.9211 6.01125V6.01125C7.9211 6.83968 7.24952 7.5225 6.4211 7.5225H2.25391V4.5Z" stroke="black" stroke-width="1.25"/>
<path d="M17.875 16.5C17.875 16.8452 18.1548 17.125 18.5 17.125C18.8452 17.125 19.125 16.8452 19.125 16.5L17.875 16.5ZM17.875 9.5L17.875 16.5L19.125 16.5L19.125 9.5L17.875 9.5Z" fill="black"/>
<path d="M0.875001 16.5C0.875001 16.8452 1.15482 17.125 1.5 17.125C1.84518 17.125 2.125 16.8452 2.125 16.5L0.875001 16.5ZM0.875 0.5L0.875001 16.5L2.125 16.5L2.125 0.5L0.875 0.5Z" fill="black"/>
<path d="M1.5 7.5H17C17.8284 7.5 18.5 8.17157 18.5 9V13.5H1.5V7.5Z" stroke="black" stroke-width="1.25"/>
</svg>
