<svg xmlns="http://www.w3.org/2000/svg" viewBox="0 0 49 48" fill="none">
  <g>
    <path d="M38.3822 21.7828L37.6638 14.042C37.3362 10.4854 34.348 7.76172 30.7757 7.76172H18.1678C14.5125 7.76172 11.4573 10.5446 11.1217 14.188L10.4191 21.7867C10.4073 21.9091 10.4033 22.0354 10.4033 22.1578V31.738C10.4033 33.9683 12.2112 35.7762 14.4415 35.7762H34.3599C36.5901 35.7762 38.398 33.9683 38.398 31.738V22.1578C38.398 22.0314 38.3941 21.9091 38.3822 21.7867V21.7828ZM15.1441 14.1446C15.2309 13.1696 16.048 12.4196 17.027 12.4196H31.7783C32.7572 12.4196 33.5743 13.1696 33.6612 14.1446L34.202 20.342H14.6033L15.1441 14.1446ZM15.3849 30.9564C14.3704 30.9564 13.5494 30.1354 13.5494 29.1209C13.5494 28.1064 14.3704 27.2854 15.3849 27.2854C16.3994 27.2854 17.2204 28.1064 17.2204 29.1209C17.2204 30.1354 16.3994 30.9564 15.3849 30.9564ZM33.8664 31.2446C32.852 31.2446 32.0309 30.4235 32.0309 29.4091C32.0309 28.3946 32.852 27.5735 33.8664 27.5735C34.8809 27.5735 35.702 28.3946 35.702 29.4091C35.702 30.4235 34.8809 31.2446 33.8664 31.2446Z" fill="black"/>
    <path d="M13.542 39.4011C13.542 39.8669 13.917 40.2419 14.3828 40.2419H16.4236C16.8894 40.2419 17.2644 39.8669 17.2644 39.4011V36.5195H13.5381V39.4011H13.542Z" fill="black"/>
    <path d="M32.003 39.4011C32.003 39.8669 32.378 40.2419 32.8438 40.2419H34.8845C35.3503 40.2419 35.7253 39.8669 35.7253 39.4011V36.5195H31.999V39.4011H32.003Z" fill="black"/>
  </g>
</svg>