<svg xmlns="http://www.w3.org/2000/svg" viewBox="0 0 49 48" fill="none">
  <g>
    <path d="M13.8178 33.961C13.8178 34.3506 14.1314 34.6643 14.5211 34.6643H16.2281C16.6177 34.6643 16.9314 34.3506 16.9314 33.961V31.5506H13.8145V33.961H13.8178Z" fill="black"/>
    <path d="M32.2465 33.961C32.2465 34.3506 32.5601 34.6643 32.9498 34.6643H34.6568C35.0464 34.6643 35.3601 34.3506 35.3601 33.961V31.5506H32.2432V33.961H32.2465Z" fill="black"/>
    <path d="M37.4731 22.7461H37.4038C36.8293 22.7461 36.3109 22.3928 36.0995 21.8579L34.0623 16.8985C33.3953 14.7787 31.4274 13.3358 29.2053 13.3358H20.1978C18.0351 13.3358 16.1068 14.7027 15.3936 16.7433C15.387 16.7664 15.3771 16.7895 15.3671 16.8126L13.0492 21.8777C12.828 22.3928 12.3228 22.7263 11.7615 22.7263C10.9856 22.7263 10.3582 23.3536 10.3582 24.1295L10.3252 29.1748C10.3252 29.9507 10.9525 30.5781 11.7285 30.5781L37.4401 30.5979C38.216 30.5979 38.8434 29.9705 38.8434 29.1946L38.8764 24.1494C38.8764 23.3734 38.249 22.7461 37.4731 22.7461ZM17.7544 17.3145C18.0582 16.6178 18.7483 16.1688 19.5077 16.1688H29.8425C30.635 16.1655 31.3449 16.6508 31.6321 17.3904L32.9661 20.8409L16.219 20.8178L17.7544 17.3145ZM15.3771 27.1375C14.5285 27.1375 13.8417 26.4507 13.8417 25.6022C13.8417 24.7536 14.5285 24.0668 15.3771 24.0668C16.2256 24.0668 16.9124 24.7536 16.9124 25.6022C16.9124 26.4507 16.2256 27.1375 15.3771 27.1375ZM33.8014 27.1375C32.9529 27.1375 32.2661 26.4507 32.2661 25.6022C32.2661 24.7536 32.9529 24.0668 33.8014 24.0668C34.65 24.0668 35.3368 24.7536 35.3368 25.6022C35.3368 26.4507 34.65 27.1375 33.8014 27.1375Z" fill="black"/>
  </g>
</svg>