<svg viewBox="0 0 22 22" fill="none" xmlns="http://www.w3.org/2000/svg">
<path d="M21.3672 13.5462C21.1572 16.1187 18.9785 18.1138 16.3797 18.0875H13.6235L8.37347 21.5V18.0875L13.6235 14.675H16.3797C17.1935 14.7013 17.876 14.0975 17.981 13.2837C18.1385 10.6587 18.1385 8.03375 17.9285 5.40875C17.876 4.67375 17.2722 4.1225 16.5635 4.07C14.7785 3.99125 12.8885 3.9125 10.9985 3.9125C9.10847 3.9125 7.21847 3.965 5.43347 4.09625C4.69847 4.14875 4.12097 4.7 4.06847 5.435C3.88472 8.06 3.85847 10.685 4.01597 13.31C4.09472 14.1238 4.80347 14.7013 5.61722 14.675H8.37347V18.0875H5.61722C4.36503 18.104 3.15335 17.6441 2.22738 16.801C1.30142 15.9579 0.730341 14.7945 0.629715 13.5462C0.445965 10.7375 0.472215 7.955 0.682215 5.14625C0.778372 3.98151 1.28986 2.89011 2.12345 2.07098C2.95704 1.25184 4.05723 0.759519 5.22347 0.68375C7.06097 0.5525 9.02972 0.5 10.9985 0.5C12.9672 0.5 14.936 0.5525 16.7997 0.71C17.966 0.785769 19.0661 1.27809 19.8997 2.09723C20.7333 2.91636 21.2448 4.00776 21.341 5.1725C21.5247 7.955 21.551 10.7638 21.3672 13.5462Z" fill="currentColor"/>
</svg>
