<svg xmlns="http://www.w3.org/2000/svg" viewBox="0 0 49 48" fill="none">
  <g>
    <path fill-rule="evenodd" clip-rule="evenodd" d="M25.868 12.6461C25.9788 12.1932 26.4411 11.9145 26.9008 12.0237L26.8174 12.3646C26.8174 12.3646 26.8174 12.3646 26.8174 12.3646C26.9008 12.0237 26.9006 12.0236 26.9008 12.0237L26.9027 12.0241L26.9063 12.025L26.9184 12.0279L26.9609 12.0384C26.9972 12.0475 27.0491 12.0607 27.1144 12.0779C27.2448 12.1122 27.4292 12.1628 27.6498 12.2286C28.0887 12.3596 28.6816 12.5543 29.2808 12.8063C29.8709 13.0545 30.5132 13.377 31.0221 13.7774C31.5046 14.157 32.0454 14.7489 32.0454 15.5535C32.0454 16.6585 31.1631 17.3101 30.6201 17.6164C30.5275 17.6686 30.4356 17.7161 30.3464 17.7591L32.4988 22.5527C33.191 22.327 33.9311 22.2048 34.7002 22.2048C38.5662 22.2048 41.7002 25.2929 41.7002 29.1024C41.7002 32.9118 38.5662 36 34.7002 36C30.8341 36 27.7001 32.9118 27.7001 29.1024C27.7001 26.6518 28.9971 24.4997 30.9515 23.2761L30.7872 22.9102C30.3343 23.1891 29.8209 23.5513 29.2483 24.0216C28.119 24.9488 27.7068 26.2346 27.2546 27.6454C27.2002 27.815 27.1452 27.9865 27.0883 28.1594C26.8406 28.9126 26.5365 29.7365 26.0016 30.3835C25.4261 31.0797 24.6242 31.5269 23.5112 31.6053C22.551 31.6729 21.4141 31.6197 20.2635 31.5061C19.2732 34.1304 16.7083 36 13.7002 36C9.83422 36 6.7002 32.9118 6.7002 29.1024C6.7002 25.2929 9.83422 22.2048 13.7002 22.2048C15.7674 22.2048 17.6252 23.0876 18.9066 24.4916C19.1445 24.255 19.3773 24.0195 19.6085 23.7857L19.7896 23.6026L18.6577 20.6503C18.4488 20.6933 18.2636 20.7306 18.1067 20.7584C17.7785 20.8164 17.4522 20.8573 17.1173 20.8183C16.7629 20.777 16.4675 20.6553 16.1779 20.4953C15.934 20.3606 15.6535 20.1745 15.3275 19.9584L15.2227 19.8889C14.8303 19.629 14.726 19.1049 14.9897 18.7182C15.2534 18.3316 15.7853 18.2288 16.1777 18.4887L16.2587 18.5423C16.6153 18.7786 16.8355 18.9245 17.0151 19.0238C17.188 19.1192 17.2633 19.1365 17.3184 19.1429C17.3931 19.1516 17.5151 19.149 17.8042 19.0979C17.9771 19.0673 18.1678 19.0279 18.4084 18.9781C18.585 18.9417 18.7884 18.8996 19.0313 18.8514C19.187 18.8206 19.3286 18.7896 19.4624 18.7603C19.8873 18.6674 20.2336 18.5916 20.7002 18.5916C21.173 18.5916 21.5563 18.9692 21.5563 19.4351C21.5563 19.901 21.173 20.2786 20.7002 20.2786C20.564 20.2786 20.4641 20.2858 20.3546 20.3026L21.1196 22.298C22.0467 21.4339 23.0568 20.6228 24.3372 19.9358C25.5453 19.2876 26.9685 18.7633 28.7586 18.3924L28.4174 17.6326C28.3157 17.406 28.3202 17.1469 28.4297 16.9238C28.5389 16.7015 28.7415 16.5376 28.9839 16.4752L28.9854 16.4748L28.9924 16.4729C29.0013 16.4704 29.0166 16.4661 29.0374 16.4599C29.0792 16.4474 29.1421 16.4276 29.219 16.4001C29.3756 16.3441 29.5762 16.2613 29.7696 16.1522C30.2211 15.8976 30.3333 15.6802 30.3333 15.5535C30.3333 15.5362 30.3131 15.3784 29.9538 15.0958C29.621 14.8339 29.141 14.5818 28.6088 14.358C28.0858 14.138 27.5563 13.9635 27.1535 13.8432C26.9533 13.7835 26.787 13.7379 26.6719 13.7076C26.6144 13.6924 26.5699 13.6811 26.5404 13.6738L26.5079 13.6657L26.5007 13.664L26.4997 13.6638C26.0402 13.5545 25.7573 13.0989 25.868 12.6461ZM33.9174 29.8815L31.6547 24.8422C30.2982 25.7855 29.4122 27.342 29.4122 29.1024C29.4122 31.9801 31.7797 34.313 34.7002 34.313C37.6206 34.313 39.9881 31.9801 39.9881 29.1024C39.9881 26.2246 37.6206 23.8918 34.7002 23.8918C34.1776 23.8918 33.6728 23.9665 33.1961 24.1056L35.4831 29.1989C35.6744 29.6249 35.479 30.1231 35.0467 30.3116C34.6143 30.5001 34.1087 30.3075 33.9174 29.8815ZM22.2207 29.9438C21.7265 29.9322 21.2 29.8985 20.6598 29.8489C20.6865 29.6037 20.7003 29.3546 20.7003 29.1024C20.7003 27.9465 20.4117 26.857 19.9017 25.9C20.0921 25.7131 20.2771 25.5283 20.458 25.3462L22.2207 29.9438ZM18.9882 29.1024C18.9882 28.402 18.848 27.7339 18.5936 27.1238C17.8351 27.7938 16.978 28.4768 15.9668 29.153C16.4042 29.2371 16.8909 29.3261 17.4069 29.413C17.9078 29.4973 18.4309 29.5786 18.9592 29.6514C18.9784 29.4709 18.9882 29.2878 18.9882 29.1024ZM13.282 28.8042C15.1528 27.7722 16.519 26.7145 17.6758 25.6666C16.7067 24.5786 15.2848 23.8918 13.7002 23.8918C10.7798 23.8918 8.41229 26.2247 8.41229 29.1024C8.41229 31.9801 10.7798 34.313 13.7002 34.313C15.8273 34.313 17.661 33.0754 18.5004 31.2912C18.0229 31.2232 17.5581 31.1499 17.1185 31.0759C16.1046 30.9052 15.2025 30.7269 14.5537 30.5912C14.2291 30.5233 13.9674 30.466 13.7862 30.4255C13.6956 30.4053 13.6251 30.3892 13.5769 30.3782L13.5216 30.3654L13.502 30.3608C13.5019 30.3608 13.5014 30.3607 13.7002 29.5402L13.502 30.3608C13.159 30.2801 12.9008 30.0004 12.8523 29.6562C12.8038 29.3121 12.9744 28.9739 13.282 28.8042ZM29.4681 19.9725C27.6428 20.3182 26.2735 20.8178 25.1559 21.4175C23.9087 22.0867 22.9383 22.8996 21.9707 23.8323C21.9069 23.8938 21.8431 23.9558 21.7792 24.0184L23.9968 29.8027C24.2933 29.6953 24.5021 29.5262 24.6742 29.318C24.9859 28.9409 25.2112 28.3947 25.4597 27.6392C25.511 27.4832 25.5627 27.3189 25.6165 27.1481C26.0474 25.7787 26.6097 23.9922 28.1522 22.7255C28.8628 22.1421 29.5085 21.6952 30.0884 21.354L29.4681 19.9725Z" fill="black"/>
  </g>
</svg>