<svg viewBox="0 0 14 14" fill="none" xmlns="http://www.w3.org/2000/svg">
<path d="M7.00016 1.53386C8.78141 1.53386 8.99235 1.54168 9.69287 1.57293C10.3439 1.60157 10.6955 1.71095 10.9299 1.80209C11.2397 1.92189 11.4637 2.06772 11.6955 2.29949C11.9298 2.53386 12.0731 2.75522 12.1929 3.06511C12.284 3.29949 12.3934 3.65366 12.422 4.30209C12.4533 5.00522 12.4611 5.21616 12.4611 6.9948C12.4611 8.77605 12.4533 8.98699 12.422 9.68751C12.3934 10.3386 12.284 10.6901 12.1929 10.9245C12.0731 11.2344 11.9272 11.4583 11.6955 11.6901C11.4611 11.9245 11.2397 12.0677 10.9299 12.1875C10.6955 12.2787 10.3413 12.388 9.69287 12.4167C8.98975 12.4479 8.77881 12.4557 7.00016 12.4557C5.21891 12.4557 5.00798 12.4479 4.30745 12.4167C3.65641 12.388 3.30485 12.2787 3.07048 12.1875C2.76058 12.0677 2.53662 11.9219 2.30485 11.6901C2.07048 11.4557 1.92725 11.2344 1.80745 10.9245C1.71631 10.6901 1.60693 10.3359 1.57829 9.68751C1.54704 8.98439 1.53923 8.77345 1.53923 6.9948C1.53923 5.21355 1.54704 5.00261 1.57829 4.30209C1.60693 3.65105 1.71631 3.29949 1.80745 3.06511C1.92725 2.75522 2.07308 2.53126 2.30485 2.29949C2.53923 2.06511 2.76058 1.92189 3.07048 1.80209C3.30485 1.71095 3.65902 1.60157 4.30745 1.57293C5.00798 1.54168 5.21891 1.53386 7.00016 1.53386ZM7.00016 0.333344C5.19027 0.333344 4.9637 0.341156 4.25277 0.372406C3.54443 0.403656 3.05745 0.518239 2.63558 0.682302C2.19548 0.854177 1.82308 1.08074 1.45329 1.45314C1.08089 1.82293 0.854329 2.19532 0.682454 2.63282C0.518392 3.0573 0.403809 3.54168 0.372559 4.25001C0.341309 4.96355 0.333496 5.19011 0.333496 7.00001C0.333496 8.80991 0.341309 9.03647 0.372559 9.74741C0.403809 10.4557 0.518392 10.9427 0.682454 11.3646C0.854329 11.8047 1.08089 12.1771 1.45329 12.5469C1.82308 12.9167 2.19548 13.1458 2.63298 13.3151C3.05745 13.4792 3.54183 13.5938 4.25016 13.625C4.9611 13.6563 5.18766 13.6641 6.99756 13.6641C8.80745 13.6641 9.03402 13.6563 9.74495 13.625C10.4533 13.5938 10.9403 13.4792 11.3621 13.3151C11.7996 13.1458 12.172 12.9167 12.5418 12.5469C12.9116 12.1771 13.1408 11.8047 13.3101 11.3672C13.4741 10.9427 13.5887 10.4583 13.62 9.75001C13.6512 9.03907 13.659 8.81251 13.659 7.00261C13.659 5.19272 13.6512 4.96616 13.62 4.25522C13.5887 3.54689 13.4741 3.05991 13.3101 2.63803C13.146 2.19532 12.9194 1.82293 12.547 1.45314C12.1772 1.08334 11.8049 0.854177 11.3674 0.684906C10.9429 0.520844 10.4585 0.40626 9.75016 0.37501C9.03662 0.341156 8.81006 0.333344 7.00016 0.333344Z" fill="currentColor"/>
<path d="M7.00016 3.57553C5.10954 3.57553 3.57568 5.10939 3.57568 7.00001C3.57568 8.89064 5.10954 10.4245 7.00016 10.4245C8.89079 10.4245 10.4246 8.89064 10.4246 7.00001C10.4246 5.10939 8.89079 3.57553 7.00016 3.57553ZM7.00016 9.22136C5.7736 9.22136 4.77881 8.22657 4.77881 7.00001C4.77881 5.77345 5.7736 4.77866 7.00016 4.77866C8.22673 4.77866 9.22152 5.77345 9.22152 7.00001C9.22152 8.22657 8.22673 9.22136 7.00016 9.22136Z" fill="currentColor"/>
<path d="M11.3597 3.44011C11.3597 3.88281 11.0003 4.23959 10.5602 4.23959C10.1175 4.23959 9.76074 3.88021 9.76074 3.44011C9.76074 2.9974 10.1201 2.64062 10.5602 2.64062C11.0003 2.64062 11.3597 3 11.3597 3.44011Z" fill="currentColor"/>
</svg>
