<svg viewBox="0 0 14 14" fill="none" xmlns="http://www.w3.org/2000/svg">
<path d="M3.45825 13.4125H0.799252V4.84973H3.45825V13.4125ZM2.12732 3.68169C1.27706 3.68169 0.587402 2.97743 0.587402 2.12717C0.587402 1.71876 0.749643 1.32707 1.03843 1.03828C1.32723 0.749491 1.71891 0.58725 2.12732 0.58725C2.53573 0.58725 2.92742 0.749491 3.21621 1.03828C3.505 1.32707 3.66724 1.71876 3.66724 2.12717C3.66724 2.97743 2.9773 3.68169 2.12732 3.68169ZM13.41 13.4125H10.7568V9.24418C10.7568 8.25078 10.7367 6.97681 9.37431 6.97681C7.99184 6.97681 7.77999 8.0561 7.77999 9.17261V13.4125H5.12385V4.84973H7.67407V6.01776H7.71128C8.06628 5.345 8.93343 4.63501 10.2271 4.63501C12.9182 4.63501 13.4129 6.40711 13.4129 8.70883V13.4125H13.41Z" fill="currentColor"/>
</svg>
