<svg xmlns="http://www.w3.org/2000/svg" viewBox="0 0 48 48" fill="none">
  <g>
    <path d="M35.5546 21.9836C34.5854 16.6276 29.9436 12.5469 24.3326 12.5469C18.7215 12.5469 14.0287 16.6276 13.0595 21.9836H9.79492V26.1154H13.0595C14.0797 31.4203 18.7215 35.45 24.2815 35.45C29.8926 35.45 34.5344 31.4203 35.5036 26.1154H38.2071V21.9836H35.5546ZM24.3326 31.5223C20.9149 31.5223 18.0584 29.2269 17.1403 26.1154H31.5249C30.5557 29.2269 27.7502 31.5223 24.3326 31.5223ZM17.0892 21.9836C17.9564 18.821 20.8639 16.4745 24.2815 16.4745C27.7502 16.4745 30.6067 18.821 31.4738 21.9836H17.0892Z" fill="currentColor"/>
  </g>
</svg>