<svg xmlns="http://www.w3.org/2000/svg" viewBox="0 0 48 48" fill="none">
  <path d="M26.043 14.6541C26.3426 15.0021 26.546 15.6884 26.546 16.1473V25.2435L30.2868 28.9367C30.6138 29.26 31.0151 29.8683 31.1828 30.2943L35.0596 40.17C35.3949 41.0248 34.9538 41.9358 34.0743 42.2043L33.6812 42.3248C32.8017 42.5933 31.8369 42.1111 31.5277 41.2481L28.2982 32.2327C28.2061 31.9738 27.9698 31.6081 27.7719 31.4149L21.8928 25.6969C21.5629 25.3764 21.3114 24.7448 21.3307 24.2873L21.3032 17.3487C21.3224 16.8898 21.0256 16.7213 20.6394 16.972L18.2564 18.3227C18.0256 18.4734 17.8139 18.8172 17.7837 19.0899L17.1831 24.627C17.0842 25.5394 16.2954 26.2093 15.42 26.1243C14.5459 26.038 13.9261 25.2311 14.0361 24.3202L14.8208 17.8419C14.8758 17.3871 15.2344 16.8172 15.6234 16.5706L21.5932 12.7705C21.9807 12.5239 22.6541 12.428 23.0815 12.5979C24.2565 13.065 25.2556 13.7349 26.043 14.6514V14.6541ZM20.7755 26.2463L13.0892 38.9864C12.5945 39.7604 12.824 40.7878 13.5991 41.281L13.6636 41.3221C14.4401 41.8152 15.4818 41.596 15.993 40.833L23.4759 28.9409C23.6285 28.7121 23.5941 28.3682 23.399 28.1737L21.398 26.1791C21.2029 25.9846 20.9239 26.0147 20.7755 26.2476V26.2463ZM27.5094 23.1571L30.273 25.5407C30.9753 26.1339 31.9648 26.112 32.4828 25.4928C33.0009 24.8736 32.8539 23.8859 32.1571 23.2873L27.508 19.2542C27.2991 19.0748 27.1287 19.1529 27.1287 19.4282V22.3352C27.1287 22.6105 27.2991 22.9777 27.5108 23.1557L27.5094 23.1571ZM25.0027 11.828C26.7288 11.828 28.1278 10.4334 28.1278 8.71282C28.1278 6.99222 26.7288 5.59766 25.0027 5.59766C23.2766 5.59766 21.8776 6.99222 21.8776 8.71282C21.8776 10.4334 23.2766 11.828 25.0027 11.828Z" fill="black"/>
</svg>